<mxfile host="app.diagrams.net" modified="2024-03-07T16:03:10.563Z" agent="Mozilla/5.0 (Windows NT 10.0; Win64; x64) AppleWebKit/537.36 (KHTML, like Gecko) Chrome/122.0.0.0 Safari/537.36" etag="WqSaWiqhQRvPwIjLa9qJ" version="24.0.2" type="device">
  <diagram id="C5RBs43oDa-KdzZeNtuy" name="Page-1">
    <mxGraphModel dx="1259" dy="693" grid="1" gridSize="10" guides="1" tooltips="1" connect="1" arrows="1" fold="1" page="1" pageScale="1" pageWidth="827" pageHeight="1169" math="0" shadow="0">
      <root>
        <mxCell id="WIyWlLk6GJQsqaUBKTNV-0" />
        <mxCell id="WIyWlLk6GJQsqaUBKTNV-1" parent="WIyWlLk6GJQsqaUBKTNV-0" />
        <mxCell id="WIyWlLk6GJQsqaUBKTNV-10" value="Hace" style="rhombus;whiteSpace=wrap;html=1;shadow=0;fontFamily=Helvetica;fontSize=12;align=center;strokeWidth=1;spacing=6;spacingTop=-4;" parent="WIyWlLk6GJQsqaUBKTNV-1" vertex="1">
          <mxGeometry x="300" y="520" width="100" height="80" as="geometry" />
        </mxCell>
        <mxCell id="WIyWlLk6GJQsqaUBKTNV-11" value="tbClientes" style="rounded=1;whiteSpace=wrap;html=1;fontSize=12;glass=0;strokeWidth=1;shadow=0;" parent="WIyWlLk6GJQsqaUBKTNV-1" vertex="1">
          <mxGeometry x="160" y="710" width="120" height="40" as="geometry" />
        </mxCell>
        <mxCell id="WIyWlLk6GJQsqaUBKTNV-12" value="tbPedidos" style="rounded=1;whiteSpace=wrap;html=1;fontSize=12;glass=0;strokeWidth=1;shadow=0;" parent="WIyWlLk6GJQsqaUBKTNV-1" vertex="1">
          <mxGeometry x="430" y="710" width="120" height="40" as="geometry" />
        </mxCell>
        <mxCell id="N83Hca_KGA1fbg6AVvMD-0" value="&lt;b&gt;id_cliente&amp;nbsp;&lt;/b&gt;" style="ellipse;whiteSpace=wrap;html=1;fillColor=#f8cecc;strokeColor=#b85450;" parent="WIyWlLk6GJQsqaUBKTNV-1" vertex="1">
          <mxGeometry x="10" y="460" width="90" height="40" as="geometry" />
        </mxCell>
        <mxCell id="N83Hca_KGA1fbg6AVvMD-1" value="apellido&amp;nbsp;" style="ellipse;whiteSpace=wrap;html=1;" parent="WIyWlLk6GJQsqaUBKTNV-1" vertex="1">
          <mxGeometry x="10" y="530" width="90" height="40" as="geometry" />
        </mxCell>
        <mxCell id="N83Hca_KGA1fbg6AVvMD-2" value="dui&amp;nbsp;" style="ellipse;whiteSpace=wrap;html=1;" parent="WIyWlLk6GJQsqaUBKTNV-1" vertex="1">
          <mxGeometry x="10" y="590" width="90" height="40" as="geometry" />
        </mxCell>
        <mxCell id="N83Hca_KGA1fbg6AVvMD-3" value="correo&amp;nbsp;" style="ellipse;whiteSpace=wrap;html=1;" parent="WIyWlLk6GJQsqaUBKTNV-1" vertex="1">
          <mxGeometry x="10" y="640" width="90" height="40" as="geometry" />
        </mxCell>
        <mxCell id="N83Hca_KGA1fbg6AVvMD-4" value="telefono&amp;nbsp;" style="ellipse;whiteSpace=wrap;html=1;" parent="WIyWlLk6GJQsqaUBKTNV-1" vertex="1">
          <mxGeometry x="10" y="690" width="90" height="40" as="geometry" />
        </mxCell>
        <mxCell id="N83Hca_KGA1fbg6AVvMD-5" value="nacimiento&amp;nbsp;" style="ellipse;whiteSpace=wrap;html=1;" parent="WIyWlLk6GJQsqaUBKTNV-1" vertex="1">
          <mxGeometry x="10" y="740" width="90" height="40" as="geometry" />
        </mxCell>
        <mxCell id="N83Hca_KGA1fbg6AVvMD-6" value="direccion&amp;nbsp;" style="ellipse;whiteSpace=wrap;html=1;" parent="WIyWlLk6GJQsqaUBKTNV-1" vertex="1">
          <mxGeometry x="10" y="790" width="90" height="40" as="geometry" />
        </mxCell>
        <mxCell id="N83Hca_KGA1fbg6AVvMD-7" value="clave_cliente&amp;nbsp;" style="ellipse;whiteSpace=wrap;html=1;" parent="WIyWlLk6GJQsqaUBKTNV-1" vertex="1">
          <mxGeometry x="10" y="840" width="90" height="40" as="geometry" />
        </mxCell>
        <mxCell id="N83Hca_KGA1fbg6AVvMD-8" value="estado_cliente&amp;nbsp;" style="ellipse;whiteSpace=wrap;html=1;" parent="WIyWlLk6GJQsqaUBKTNV-1" vertex="1">
          <mxGeometry x="10" y="890" width="90" height="40" as="geometry" />
        </mxCell>
        <mxCell id="N83Hca_KGA1fbg6AVvMD-9" value="perfil_imagen&amp;nbsp;" style="ellipse;whiteSpace=wrap;html=1;" parent="WIyWlLk6GJQsqaUBKTNV-1" vertex="1">
          <mxGeometry x="10" y="940" width="90" height="40" as="geometry" />
        </mxCell>
        <mxCell id="N83Hca_KGA1fbg6AVvMD-13" value="" style="endArrow=none;html=1;rounded=0;" parent="WIyWlLk6GJQsqaUBKTNV-1" edge="1">
          <mxGeometry width="50" height="50" relative="1" as="geometry">
            <mxPoint x="120" y="960" as="sourcePoint" />
            <mxPoint x="120" y="480" as="targetPoint" />
          </mxGeometry>
        </mxCell>
        <mxCell id="N83Hca_KGA1fbg6AVvMD-17" value="" style="endArrow=none;html=1;rounded=0;exitX=1;exitY=0.5;exitDx=0;exitDy=0;" parent="WIyWlLk6GJQsqaUBKTNV-1" source="N83Hca_KGA1fbg6AVvMD-0" edge="1">
          <mxGeometry width="50" height="50" relative="1" as="geometry">
            <mxPoint x="390" y="630" as="sourcePoint" />
            <mxPoint x="120" y="480" as="targetPoint" />
          </mxGeometry>
        </mxCell>
        <mxCell id="N83Hca_KGA1fbg6AVvMD-18" value="" style="endArrow=none;html=1;rounded=0;exitX=1;exitY=0.5;exitDx=0;exitDy=0;" parent="WIyWlLk6GJQsqaUBKTNV-1" edge="1">
          <mxGeometry width="50" height="50" relative="1" as="geometry">
            <mxPoint x="100" y="549.8" as="sourcePoint" />
            <mxPoint x="120" y="549.8" as="targetPoint" />
          </mxGeometry>
        </mxCell>
        <mxCell id="N83Hca_KGA1fbg6AVvMD-19" value="" style="endArrow=none;html=1;rounded=0;exitX=1;exitY=0.5;exitDx=0;exitDy=0;" parent="WIyWlLk6GJQsqaUBKTNV-1" edge="1">
          <mxGeometry width="50" height="50" relative="1" as="geometry">
            <mxPoint x="100" y="609.8" as="sourcePoint" />
            <mxPoint x="120" y="609.8" as="targetPoint" />
          </mxGeometry>
        </mxCell>
        <mxCell id="N83Hca_KGA1fbg6AVvMD-20" value="" style="endArrow=none;html=1;rounded=0;exitX=1;exitY=0.5;exitDx=0;exitDy=0;" parent="WIyWlLk6GJQsqaUBKTNV-1" edge="1">
          <mxGeometry width="50" height="50" relative="1" as="geometry">
            <mxPoint x="100" y="659.8" as="sourcePoint" />
            <mxPoint x="120" y="659.8" as="targetPoint" />
          </mxGeometry>
        </mxCell>
        <mxCell id="N83Hca_KGA1fbg6AVvMD-21" value="" style="endArrow=none;html=1;rounded=0;exitX=1;exitY=0.5;exitDx=0;exitDy=0;" parent="WIyWlLk6GJQsqaUBKTNV-1" edge="1">
          <mxGeometry width="50" height="50" relative="1" as="geometry">
            <mxPoint x="100" y="709.8" as="sourcePoint" />
            <mxPoint x="120" y="709.8" as="targetPoint" />
          </mxGeometry>
        </mxCell>
        <mxCell id="N83Hca_KGA1fbg6AVvMD-22" value="" style="endArrow=none;html=1;rounded=0;exitX=1;exitY=0.5;exitDx=0;exitDy=0;" parent="WIyWlLk6GJQsqaUBKTNV-1" edge="1">
          <mxGeometry width="50" height="50" relative="1" as="geometry">
            <mxPoint x="100" y="759.8" as="sourcePoint" />
            <mxPoint x="120" y="759.8" as="targetPoint" />
          </mxGeometry>
        </mxCell>
        <mxCell id="N83Hca_KGA1fbg6AVvMD-23" value="" style="endArrow=none;html=1;rounded=0;exitX=1;exitY=0.5;exitDx=0;exitDy=0;" parent="WIyWlLk6GJQsqaUBKTNV-1" edge="1">
          <mxGeometry width="50" height="50" relative="1" as="geometry">
            <mxPoint x="100" y="809.8" as="sourcePoint" />
            <mxPoint x="120" y="809.8" as="targetPoint" />
          </mxGeometry>
        </mxCell>
        <mxCell id="N83Hca_KGA1fbg6AVvMD-24" value="" style="endArrow=none;html=1;rounded=0;exitX=1;exitY=0.5;exitDx=0;exitDy=0;" parent="WIyWlLk6GJQsqaUBKTNV-1" edge="1">
          <mxGeometry width="50" height="50" relative="1" as="geometry">
            <mxPoint x="100" y="859.8" as="sourcePoint" />
            <mxPoint x="120" y="859.8" as="targetPoint" />
          </mxGeometry>
        </mxCell>
        <mxCell id="N83Hca_KGA1fbg6AVvMD-25" value="" style="endArrow=none;html=1;rounded=0;exitX=1;exitY=0.5;exitDx=0;exitDy=0;" parent="WIyWlLk6GJQsqaUBKTNV-1" edge="1">
          <mxGeometry width="50" height="50" relative="1" as="geometry">
            <mxPoint x="100" y="909.8" as="sourcePoint" />
            <mxPoint x="120" y="909.8" as="targetPoint" />
          </mxGeometry>
        </mxCell>
        <mxCell id="N83Hca_KGA1fbg6AVvMD-26" value="" style="endArrow=none;html=1;rounded=0;exitX=1;exitY=0.5;exitDx=0;exitDy=0;" parent="WIyWlLk6GJQsqaUBKTNV-1" edge="1">
          <mxGeometry width="50" height="50" relative="1" as="geometry">
            <mxPoint x="100" y="959.8" as="sourcePoint" />
            <mxPoint x="120" y="959.8" as="targetPoint" />
          </mxGeometry>
        </mxCell>
        <mxCell id="N83Hca_KGA1fbg6AVvMD-27" value="" style="endArrow=none;html=1;rounded=0;exitX=1;exitY=0.5;exitDx=0;exitDy=0;entryX=0;entryY=0.5;entryDx=0;entryDy=0;" parent="WIyWlLk6GJQsqaUBKTNV-1" target="WIyWlLk6GJQsqaUBKTNV-11" edge="1">
          <mxGeometry width="50" height="50" relative="1" as="geometry">
            <mxPoint x="120" y="730" as="sourcePoint" />
            <mxPoint x="140" y="730" as="targetPoint" />
          </mxGeometry>
        </mxCell>
        <mxCell id="N83Hca_KGA1fbg6AVvMD-28" value="&lt;b&gt;id_cliente&amp;nbsp;&lt;/b&gt;" style="ellipse;whiteSpace=wrap;html=1;fillColor=#dae8fc;strokeColor=#6c8ebf;" parent="WIyWlLk6GJQsqaUBKTNV-1" vertex="1">
          <mxGeometry x="620" y="565" width="90" height="40" as="geometry" />
        </mxCell>
        <mxCell id="N83Hca_KGA1fbg6AVvMD-29" value="" style="endArrow=none;html=1;rounded=0;exitX=0;exitY=0.5;exitDx=0;exitDy=0;" parent="WIyWlLk6GJQsqaUBKTNV-1" source="N83Hca_KGA1fbg6AVvMD-28" edge="1">
          <mxGeometry width="50" height="50" relative="1" as="geometry">
            <mxPoint x="290" y="520" as="sourcePoint" />
            <mxPoint x="600" y="640" as="targetPoint" />
            <Array as="points">
              <mxPoint x="600" y="585" />
            </Array>
          </mxGeometry>
        </mxCell>
        <mxCell id="N83Hca_KGA1fbg6AVvMD-30" value="&lt;b&gt;id_pedido&amp;nbsp;&lt;/b&gt;" style="ellipse;whiteSpace=wrap;html=1;fillColor=#f8cecc;strokeColor=#b85450;" parent="WIyWlLk6GJQsqaUBKTNV-1" vertex="1">
          <mxGeometry x="620" y="620" width="90" height="40" as="geometry" />
        </mxCell>
        <mxCell id="N83Hca_KGA1fbg6AVvMD-31" value="estado_pedido&amp;nbsp;" style="ellipse;whiteSpace=wrap;html=1;" parent="WIyWlLk6GJQsqaUBKTNV-1" vertex="1">
          <mxGeometry x="620" y="680" width="90" height="40" as="geometry" />
        </mxCell>
        <mxCell id="N83Hca_KGA1fbg6AVvMD-32" value="fecha_registro&amp;nbsp;" style="ellipse;whiteSpace=wrap;html=1;" parent="WIyWlLk6GJQsqaUBKTNV-1" vertex="1">
          <mxGeometry x="620" y="730" width="90" height="40" as="geometry" />
        </mxCell>
        <mxCell id="N83Hca_KGA1fbg6AVvMD-33" value="direccion&amp;nbsp;" style="ellipse;whiteSpace=wrap;html=1;" parent="WIyWlLk6GJQsqaUBKTNV-1" vertex="1">
          <mxGeometry x="620" y="780" width="90" height="40" as="geometry" />
        </mxCell>
        <mxCell id="N83Hca_KGA1fbg6AVvMD-38" value="" style="endArrow=none;html=1;rounded=0;exitX=1;exitY=0.5;exitDx=0;exitDy=0;" parent="WIyWlLk6GJQsqaUBKTNV-1" edge="1">
          <mxGeometry width="50" height="50" relative="1" as="geometry">
            <mxPoint x="550" y="730" as="sourcePoint" />
            <mxPoint x="600" y="730" as="targetPoint" />
          </mxGeometry>
        </mxCell>
        <mxCell id="N83Hca_KGA1fbg6AVvMD-39" value="" style="endArrow=none;html=1;rounded=0;" parent="WIyWlLk6GJQsqaUBKTNV-1" edge="1">
          <mxGeometry width="50" height="50" relative="1" as="geometry">
            <mxPoint x="600" y="640" as="sourcePoint" />
            <mxPoint x="600" y="800" as="targetPoint" />
          </mxGeometry>
        </mxCell>
        <mxCell id="N83Hca_KGA1fbg6AVvMD-40" value="" style="endArrow=none;html=1;rounded=0;exitX=0;exitY=0.5;exitDx=0;exitDy=0;" parent="WIyWlLk6GJQsqaUBKTNV-1" source="N83Hca_KGA1fbg6AVvMD-33" edge="1">
          <mxGeometry width="50" height="50" relative="1" as="geometry">
            <mxPoint x="610" y="790" as="sourcePoint" />
            <mxPoint x="600" y="800" as="targetPoint" />
          </mxGeometry>
        </mxCell>
        <mxCell id="N83Hca_KGA1fbg6AVvMD-41" value="" style="endArrow=none;html=1;rounded=0;exitX=0;exitY=0.5;exitDx=0;exitDy=0;" parent="WIyWlLk6GJQsqaUBKTNV-1" edge="1">
          <mxGeometry width="50" height="50" relative="1" as="geometry">
            <mxPoint x="620" y="750" as="sourcePoint" />
            <mxPoint x="600" y="750" as="targetPoint" />
          </mxGeometry>
        </mxCell>
        <mxCell id="N83Hca_KGA1fbg6AVvMD-42" value="" style="endArrow=none;html=1;rounded=0;exitX=0;exitY=0.5;exitDx=0;exitDy=0;" parent="WIyWlLk6GJQsqaUBKTNV-1" edge="1">
          <mxGeometry width="50" height="50" relative="1" as="geometry">
            <mxPoint x="620" y="699.8" as="sourcePoint" />
            <mxPoint x="600" y="699.8" as="targetPoint" />
          </mxGeometry>
        </mxCell>
        <mxCell id="N83Hca_KGA1fbg6AVvMD-43" value="" style="endArrow=none;html=1;rounded=0;exitX=0;exitY=0.5;exitDx=0;exitDy=0;" parent="WIyWlLk6GJQsqaUBKTNV-1" edge="1">
          <mxGeometry width="50" height="50" relative="1" as="geometry">
            <mxPoint x="620" y="640" as="sourcePoint" />
            <mxPoint x="600" y="640" as="targetPoint" />
          </mxGeometry>
        </mxCell>
        <mxCell id="N83Hca_KGA1fbg6AVvMD-44" value="Posee" style="rhombus;whiteSpace=wrap;html=1;shadow=0;fontFamily=Helvetica;fontSize=12;align=center;strokeWidth=1;spacing=6;spacingTop=-4;" parent="WIyWlLk6GJQsqaUBKTNV-1" vertex="1">
          <mxGeometry x="440" y="850" width="100" height="80" as="geometry" />
        </mxCell>
        <mxCell id="N83Hca_KGA1fbg6AVvMD-47" value="tbDetallesPedidos" style="rounded=1;whiteSpace=wrap;html=1;fontSize=12;glass=0;strokeWidth=1;shadow=0;" parent="WIyWlLk6GJQsqaUBKTNV-1" vertex="1">
          <mxGeometry x="430" y="1000" width="120" height="40" as="geometry" />
        </mxCell>
        <mxCell id="b2kp6KdMQlq8Cz1gL0IX-7" style="edgeStyle=orthogonalEdgeStyle;rounded=0;orthogonalLoop=1;jettySize=auto;html=1;strokeColor=none;" parent="WIyWlLk6GJQsqaUBKTNV-1" source="N83Hca_KGA1fbg6AVvMD-49" edge="1">
          <mxGeometry relative="1" as="geometry">
            <mxPoint x="410" y="1130" as="targetPoint" />
          </mxGeometry>
        </mxCell>
        <mxCell id="N83Hca_KGA1fbg6AVvMD-49" value="&lt;b&gt;id_pedido&amp;nbsp;&lt;/b&gt;" style="ellipse;whiteSpace=wrap;html=1;fillColor=#dae8fc;strokeColor=#6c8ebf;" parent="WIyWlLk6GJQsqaUBKTNV-1" vertex="1">
          <mxGeometry x="250" y="1169" width="120" height="40" as="geometry" />
        </mxCell>
        <mxCell id="N83Hca_KGA1fbg6AVvMD-51" value="&lt;b&gt;id_detalle_pedido&lt;/b&gt;" style="ellipse;whiteSpace=wrap;html=1;fillColor=#f8cecc;strokeColor=#b85450;" parent="WIyWlLk6GJQsqaUBKTNV-1" vertex="1">
          <mxGeometry x="250" y="1000" width="130" height="40" as="geometry" />
        </mxCell>
        <mxCell id="N83Hca_KGA1fbg6AVvMD-52" value="cantidad_producto&amp;nbsp;" style="ellipse;whiteSpace=wrap;html=1;" parent="WIyWlLk6GJQsqaUBKTNV-1" vertex="1">
          <mxGeometry x="250" y="1050" width="120" height="40" as="geometry" />
        </mxCell>
        <mxCell id="N83Hca_KGA1fbg6AVvMD-53" value="precio_producto&amp;nbsp;" style="ellipse;whiteSpace=wrap;html=1;" parent="WIyWlLk6GJQsqaUBKTNV-1" vertex="1">
          <mxGeometry x="250" y="1110" width="120" height="40" as="geometry" />
        </mxCell>
        <mxCell id="N83Hca_KGA1fbg6AVvMD-54" value="" style="endArrow=none;html=1;rounded=0;" parent="WIyWlLk6GJQsqaUBKTNV-1" edge="1">
          <mxGeometry width="50" height="50" relative="1" as="geometry">
            <mxPoint x="410" y="1019.13" as="sourcePoint" />
            <mxPoint x="410" y="1129.13" as="targetPoint" />
          </mxGeometry>
        </mxCell>
        <mxCell id="N83Hca_KGA1fbg6AVvMD-55" value="" style="endArrow=none;html=1;rounded=0;exitX=1;exitY=0.5;exitDx=0;exitDy=0;" parent="WIyWlLk6GJQsqaUBKTNV-1" edge="1">
          <mxGeometry width="50" height="50" relative="1" as="geometry">
            <mxPoint x="380" y="1018.7099999999999" as="sourcePoint" />
            <mxPoint x="430" y="1018.7099999999999" as="targetPoint" />
          </mxGeometry>
        </mxCell>
        <mxCell id="N83Hca_KGA1fbg6AVvMD-56" value="" style="endArrow=none;html=1;rounded=0;entryX=1;entryY=0.5;entryDx=0;entryDy=0;" parent="WIyWlLk6GJQsqaUBKTNV-1" target="N83Hca_KGA1fbg6AVvMD-52" edge="1">
          <mxGeometry width="50" height="50" relative="1" as="geometry">
            <mxPoint x="410" y="1070" as="sourcePoint" />
            <mxPoint x="394" y="1069.65" as="targetPoint" />
          </mxGeometry>
        </mxCell>
        <mxCell id="N83Hca_KGA1fbg6AVvMD-57" value="" style="endArrow=none;html=1;rounded=0;" parent="WIyWlLk6GJQsqaUBKTNV-1" edge="1">
          <mxGeometry width="50" height="50" relative="1" as="geometry">
            <mxPoint x="410" y="1130" as="sourcePoint" />
            <mxPoint x="370" y="1129.8200000000002" as="targetPoint" />
          </mxGeometry>
        </mxCell>
        <mxCell id="N83Hca_KGA1fbg6AVvMD-63" value="tbValoraciones" style="rounded=1;whiteSpace=wrap;html=1;fontSize=12;glass=0;strokeWidth=1;shadow=0;" parent="WIyWlLk6GJQsqaUBKTNV-1" vertex="1">
          <mxGeometry x="430" y="1360" width="120" height="40" as="geometry" />
        </mxCell>
        <mxCell id="N83Hca_KGA1fbg6AVvMD-64" value="&lt;b&gt;id_valoracion&amp;nbsp;&lt;/b&gt;" style="ellipse;whiteSpace=wrap;html=1;fillColor=#f8cecc;strokeColor=#b85450;" parent="WIyWlLk6GJQsqaUBKTNV-1" vertex="1">
          <mxGeometry x="600" y="1350" width="120" height="40" as="geometry" />
        </mxCell>
        <mxCell id="N83Hca_KGA1fbg6AVvMD-65" value="calificacion_producto&amp;nbsp;" style="ellipse;whiteSpace=wrap;html=1;" parent="WIyWlLk6GJQsqaUBKTNV-1" vertex="1">
          <mxGeometry x="600" y="1400" width="120" height="40" as="geometry" />
        </mxCell>
        <mxCell id="N83Hca_KGA1fbg6AVvMD-66" value="comentario_producto&amp;nbsp;" style="ellipse;whiteSpace=wrap;html=1;" parent="WIyWlLk6GJQsqaUBKTNV-1" vertex="1">
          <mxGeometry x="600" y="1460" width="120" height="40" as="geometry" />
        </mxCell>
        <mxCell id="N83Hca_KGA1fbg6AVvMD-67" value="" style="endArrow=none;html=1;rounded=0;" parent="WIyWlLk6GJQsqaUBKTNV-1" edge="1">
          <mxGeometry width="50" height="50" relative="1" as="geometry">
            <mxPoint x="580" y="1370" as="sourcePoint" />
            <mxPoint x="580" y="1480" as="targetPoint" />
          </mxGeometry>
        </mxCell>
        <mxCell id="N83Hca_KGA1fbg6AVvMD-68" value="" style="endArrow=none;html=1;rounded=0;exitX=1;exitY=0.5;exitDx=0;exitDy=0;" parent="WIyWlLk6GJQsqaUBKTNV-1" edge="1">
          <mxGeometry width="50" height="50" relative="1" as="geometry">
            <mxPoint x="550" y="1369.58" as="sourcePoint" />
            <mxPoint x="600" y="1369.58" as="targetPoint" />
          </mxGeometry>
        </mxCell>
        <mxCell id="N83Hca_KGA1fbg6AVvMD-69" value="" style="endArrow=none;html=1;rounded=0;exitX=0;exitY=0.5;exitDx=0;exitDy=0;" parent="WIyWlLk6GJQsqaUBKTNV-1" edge="1">
          <mxGeometry width="50" height="50" relative="1" as="geometry">
            <mxPoint x="600" y="1419.8" as="sourcePoint" />
            <mxPoint x="580" y="1419.8" as="targetPoint" />
          </mxGeometry>
        </mxCell>
        <mxCell id="N83Hca_KGA1fbg6AVvMD-70" value="" style="endArrow=none;html=1;rounded=0;exitX=0;exitY=0.5;exitDx=0;exitDy=0;" parent="WIyWlLk6GJQsqaUBKTNV-1" edge="1">
          <mxGeometry width="50" height="50" relative="1" as="geometry">
            <mxPoint x="600" y="1480" as="sourcePoint" />
            <mxPoint x="580" y="1480" as="targetPoint" />
          </mxGeometry>
        </mxCell>
        <mxCell id="N83Hca_KGA1fbg6AVvMD-71" value="Tiene" style="rhombus;whiteSpace=wrap;html=1;shadow=0;fontFamily=Helvetica;fontSize=12;align=center;strokeWidth=1;spacing=6;spacingTop=-4;" parent="WIyWlLk6GJQsqaUBKTNV-1" vertex="1">
          <mxGeometry x="440" y="1190" width="100" height="80" as="geometry" />
        </mxCell>
        <mxCell id="N83Hca_KGA1fbg6AVvMD-75" value="fecha_valoracion&amp;nbsp;" style="ellipse;whiteSpace=wrap;html=1;" parent="WIyWlLk6GJQsqaUBKTNV-1" vertex="1">
          <mxGeometry x="600" y="1510" width="120" height="40" as="geometry" />
        </mxCell>
        <mxCell id="N83Hca_KGA1fbg6AVvMD-76" value="estado_comentario&amp;nbsp;" style="ellipse;whiteSpace=wrap;html=1;" parent="WIyWlLk6GJQsqaUBKTNV-1" vertex="1">
          <mxGeometry x="600" y="1570" width="120" height="40" as="geometry" />
        </mxCell>
        <mxCell id="N83Hca_KGA1fbg6AVvMD-77" value="" style="endArrow=none;html=1;rounded=0;exitX=0;exitY=0.5;exitDx=0;exitDy=0;" parent="WIyWlLk6GJQsqaUBKTNV-1" edge="1">
          <mxGeometry width="50" height="50" relative="1" as="geometry">
            <mxPoint x="600" y="1529.8" as="sourcePoint" />
            <mxPoint x="580" y="1529.8" as="targetPoint" />
          </mxGeometry>
        </mxCell>
        <mxCell id="N83Hca_KGA1fbg6AVvMD-78" value="" style="endArrow=none;html=1;rounded=0;exitX=0;exitY=0.5;exitDx=0;exitDy=0;" parent="WIyWlLk6GJQsqaUBKTNV-1" edge="1">
          <mxGeometry width="50" height="50" relative="1" as="geometry">
            <mxPoint x="600" y="1590" as="sourcePoint" />
            <mxPoint x="580" y="1590" as="targetPoint" />
          </mxGeometry>
        </mxCell>
        <mxCell id="N83Hca_KGA1fbg6AVvMD-79" value="" style="endArrow=none;html=1;rounded=0;" parent="WIyWlLk6GJQsqaUBKTNV-1" edge="1">
          <mxGeometry width="50" height="50" relative="1" as="geometry">
            <mxPoint x="580" y="1480" as="sourcePoint" />
            <mxPoint x="580" y="1590" as="targetPoint" />
          </mxGeometry>
        </mxCell>
        <mxCell id="N83Hca_KGA1fbg6AVvMD-84" value="tbTallas" style="rounded=1;whiteSpace=wrap;html=1;fontSize=12;glass=0;strokeWidth=1;shadow=0;" parent="WIyWlLk6GJQsqaUBKTNV-1" vertex="1">
          <mxGeometry x="850" y="740" width="120" height="40" as="geometry" />
        </mxCell>
        <mxCell id="N83Hca_KGA1fbg6AVvMD-85" value="&lt;b&gt;id_talla&amp;nbsp;&lt;/b&gt;" style="ellipse;whiteSpace=wrap;html=1;fillColor=#f8cecc;strokeColor=#b85450;" parent="WIyWlLk6GJQsqaUBKTNV-1" vertex="1">
          <mxGeometry x="1040" y="710" width="90" height="40" as="geometry" />
        </mxCell>
        <mxCell id="N83Hca_KGA1fbg6AVvMD-86" value="" style="endArrow=none;html=1;rounded=0;exitX=0;exitY=0.5;exitDx=0;exitDy=0;" parent="WIyWlLk6GJQsqaUBKTNV-1" edge="1">
          <mxGeometry width="50" height="50" relative="1" as="geometry">
            <mxPoint x="1040" y="789.8" as="sourcePoint" />
            <mxPoint x="1020" y="789.8" as="targetPoint" />
          </mxGeometry>
        </mxCell>
        <mxCell id="N83Hca_KGA1fbg6AVvMD-87" value="" style="endArrow=none;html=1;rounded=0;exitX=0;exitY=0.5;exitDx=0;exitDy=0;" parent="WIyWlLk6GJQsqaUBKTNV-1" edge="1">
          <mxGeometry width="50" height="50" relative="1" as="geometry">
            <mxPoint x="1040" y="730" as="sourcePoint" />
            <mxPoint x="1020" y="730" as="targetPoint" />
          </mxGeometry>
        </mxCell>
        <mxCell id="N83Hca_KGA1fbg6AVvMD-88" value="nombre&amp;nbsp;" style="ellipse;whiteSpace=wrap;html=1;" parent="WIyWlLk6GJQsqaUBKTNV-1" vertex="1">
          <mxGeometry x="1040" y="770" width="90" height="40" as="geometry" />
        </mxCell>
        <mxCell id="N83Hca_KGA1fbg6AVvMD-89" value="" style="endArrow=none;html=1;rounded=0;" parent="WIyWlLk6GJQsqaUBKTNV-1" edge="1">
          <mxGeometry width="50" height="50" relative="1" as="geometry">
            <mxPoint x="1020" y="730" as="sourcePoint" />
            <mxPoint x="1020" y="790" as="targetPoint" />
          </mxGeometry>
        </mxCell>
        <mxCell id="N83Hca_KGA1fbg6AVvMD-90" value="" style="endArrow=none;html=1;rounded=0;exitX=1;exitY=0.5;exitDx=0;exitDy=0;" parent="WIyWlLk6GJQsqaUBKTNV-1" edge="1">
          <mxGeometry width="50" height="50" relative="1" as="geometry">
            <mxPoint x="970" y="759.5699999999999" as="sourcePoint" />
            <mxPoint x="1020" y="759.5699999999999" as="targetPoint" />
          </mxGeometry>
        </mxCell>
        <mxCell id="N83Hca_KGA1fbg6AVvMD-91" value="tbDetallesProductos" style="rounded=1;whiteSpace=wrap;html=1;fontSize=12;glass=0;strokeWidth=1;shadow=0;" parent="WIyWlLk6GJQsqaUBKTNV-1" vertex="1">
          <mxGeometry x="850" y="1000" width="120" height="40" as="geometry" />
        </mxCell>
        <mxCell id="N83Hca_KGA1fbg6AVvMD-92" value="&lt;b&gt;id_detalle_producto&amp;nbsp;&lt;/b&gt;" style="ellipse;whiteSpace=wrap;html=1;fillColor=#f8cecc;strokeColor=#b85450;" parent="WIyWlLk6GJQsqaUBKTNV-1" vertex="1">
          <mxGeometry x="1040" y="900" width="140" height="40" as="geometry" />
        </mxCell>
        <mxCell id="N83Hca_KGA1fbg6AVvMD-93" value="" style="endArrow=none;html=1;rounded=0;exitX=0;exitY=0.5;exitDx=0;exitDy=0;" parent="WIyWlLk6GJQsqaUBKTNV-1" edge="1">
          <mxGeometry width="50" height="50" relative="1" as="geometry">
            <mxPoint x="1040" y="979.8" as="sourcePoint" />
            <mxPoint x="1020" y="979.8" as="targetPoint" />
          </mxGeometry>
        </mxCell>
        <mxCell id="N83Hca_KGA1fbg6AVvMD-94" value="" style="endArrow=none;html=1;rounded=0;exitX=0;exitY=0.5;exitDx=0;exitDy=0;" parent="WIyWlLk6GJQsqaUBKTNV-1" edge="1">
          <mxGeometry width="50" height="50" relative="1" as="geometry">
            <mxPoint x="1040" y="920" as="sourcePoint" />
            <mxPoint x="1020" y="920" as="targetPoint" />
          </mxGeometry>
        </mxCell>
        <mxCell id="N83Hca_KGA1fbg6AVvMD-95" value="existencias" style="ellipse;whiteSpace=wrap;html=1;" parent="WIyWlLk6GJQsqaUBKTNV-1" vertex="1">
          <mxGeometry x="1040" y="960" width="90" height="40" as="geometry" />
        </mxCell>
        <mxCell id="N83Hca_KGA1fbg6AVvMD-96" value="" style="endArrow=none;html=1;rounded=0;" parent="WIyWlLk6GJQsqaUBKTNV-1" edge="1">
          <mxGeometry width="50" height="50" relative="1" as="geometry">
            <mxPoint x="1020" y="920" as="sourcePoint" />
            <mxPoint x="1020" y="980" as="targetPoint" />
          </mxGeometry>
        </mxCell>
        <mxCell id="N83Hca_KGA1fbg6AVvMD-97" value="" style="endArrow=none;html=1;rounded=0;exitX=1;exitY=0.5;exitDx=0;exitDy=0;" parent="WIyWlLk6GJQsqaUBKTNV-1" edge="1">
          <mxGeometry width="50" height="50" relative="1" as="geometry">
            <mxPoint x="970" y="1019.5699999999999" as="sourcePoint" />
            <mxPoint x="1020" y="1019.5699999999999" as="targetPoint" />
          </mxGeometry>
        </mxCell>
        <mxCell id="N83Hca_KGA1fbg6AVvMD-98" value="Tiene" style="rhombus;whiteSpace=wrap;html=1;shadow=0;fontFamily=Helvetica;fontSize=12;align=center;strokeWidth=1;spacing=6;spacingTop=-4;" parent="WIyWlLk6GJQsqaUBKTNV-1" vertex="1">
          <mxGeometry x="860" y="850" width="100" height="80" as="geometry" />
        </mxCell>
        <mxCell id="N83Hca_KGA1fbg6AVvMD-103" value="Recibe" style="rhombus;whiteSpace=wrap;html=1;shadow=0;fontFamily=Helvetica;fontSize=12;align=center;strokeWidth=1;spacing=6;spacingTop=-4;" parent="WIyWlLk6GJQsqaUBKTNV-1" vertex="1">
          <mxGeometry x="630" y="980" width="100" height="80" as="geometry" />
        </mxCell>
        <mxCell id="N83Hca_KGA1fbg6AVvMD-108" value="Tiene" style="rhombus;whiteSpace=wrap;html=1;shadow=0;fontFamily=Helvetica;fontSize=12;align=center;strokeWidth=1;spacing=6;spacingTop=-4;" parent="WIyWlLk6GJQsqaUBKTNV-1" vertex="1">
          <mxGeometry x="860" y="1120" width="100" height="80" as="geometry" />
        </mxCell>
        <mxCell id="N83Hca_KGA1fbg6AVvMD-111" value="tbProductos" style="rounded=1;whiteSpace=wrap;html=1;fontSize=12;glass=0;strokeWidth=1;shadow=0;" parent="WIyWlLk6GJQsqaUBKTNV-1" vertex="1">
          <mxGeometry x="1385" y="1140" width="120" height="40" as="geometry" />
        </mxCell>
        <mxCell id="N83Hca_KGA1fbg6AVvMD-115" value="&lt;b&gt;id_producto&amp;nbsp;&lt;/b&gt;" style="ellipse;whiteSpace=wrap;html=1;fillColor=#f8cecc;strokeColor=#b85450;" parent="WIyWlLk6GJQsqaUBKTNV-1" vertex="1">
          <mxGeometry x="1495" y="1200" width="90" height="40" as="geometry" />
        </mxCell>
        <mxCell id="N83Hca_KGA1fbg6AVvMD-116" value="nombre&amp;nbsp;" style="ellipse;whiteSpace=wrap;html=1;" parent="WIyWlLk6GJQsqaUBKTNV-1" vertex="1">
          <mxGeometry x="1495" y="1270" width="90" height="40" as="geometry" />
        </mxCell>
        <mxCell id="N83Hca_KGA1fbg6AVvMD-117" value="descripcion&amp;nbsp;" style="ellipse;whiteSpace=wrap;html=1;" parent="WIyWlLk6GJQsqaUBKTNV-1" vertex="1">
          <mxGeometry x="1495" y="1330" width="90" height="40" as="geometry" />
        </mxCell>
        <mxCell id="N83Hca_KGA1fbg6AVvMD-118" value="precio&amp;nbsp;" style="ellipse;whiteSpace=wrap;html=1;" parent="WIyWlLk6GJQsqaUBKTNV-1" vertex="1">
          <mxGeometry x="1495" y="1380" width="90" height="40" as="geometry" />
        </mxCell>
        <mxCell id="N83Hca_KGA1fbg6AVvMD-119" value="estado_producto&amp;nbsp;" style="ellipse;whiteSpace=wrap;html=1;" parent="WIyWlLk6GJQsqaUBKTNV-1" vertex="1">
          <mxGeometry x="1495" y="1430" width="100" height="40" as="geometry" />
        </mxCell>
        <mxCell id="N83Hca_KGA1fbg6AVvMD-125" value="" style="endArrow=none;html=1;rounded=0;" parent="WIyWlLk6GJQsqaUBKTNV-1" edge="1">
          <mxGeometry width="50" height="50" relative="1" as="geometry">
            <mxPoint x="1475" y="1450" as="sourcePoint" />
            <mxPoint x="1475" y="1220" as="targetPoint" />
          </mxGeometry>
        </mxCell>
        <mxCell id="N83Hca_KGA1fbg6AVvMD-126" value="" style="endArrow=none;html=1;rounded=0;exitX=1;exitY=0.5;exitDx=0;exitDy=0;" parent="WIyWlLk6GJQsqaUBKTNV-1" edge="1">
          <mxGeometry width="50" height="50" relative="1" as="geometry">
            <mxPoint x="1475" y="1220" as="sourcePoint" />
            <mxPoint x="1495" y="1220" as="targetPoint" />
          </mxGeometry>
        </mxCell>
        <mxCell id="N83Hca_KGA1fbg6AVvMD-127" value="" style="endArrow=none;html=1;rounded=0;exitX=1;exitY=0.5;exitDx=0;exitDy=0;" parent="WIyWlLk6GJQsqaUBKTNV-1" edge="1">
          <mxGeometry width="50" height="50" relative="1" as="geometry">
            <mxPoint x="1475" y="1289.8" as="sourcePoint" />
            <mxPoint x="1495" y="1289.8" as="targetPoint" />
          </mxGeometry>
        </mxCell>
        <mxCell id="N83Hca_KGA1fbg6AVvMD-128" value="" style="endArrow=none;html=1;rounded=0;exitX=1;exitY=0.5;exitDx=0;exitDy=0;" parent="WIyWlLk6GJQsqaUBKTNV-1" edge="1">
          <mxGeometry width="50" height="50" relative="1" as="geometry">
            <mxPoint x="1475" y="1349.8" as="sourcePoint" />
            <mxPoint x="1495" y="1349.8" as="targetPoint" />
          </mxGeometry>
        </mxCell>
        <mxCell id="N83Hca_KGA1fbg6AVvMD-129" value="" style="endArrow=none;html=1;rounded=0;exitX=1;exitY=0.5;exitDx=0;exitDy=0;" parent="WIyWlLk6GJQsqaUBKTNV-1" edge="1">
          <mxGeometry width="50" height="50" relative="1" as="geometry">
            <mxPoint x="1475" y="1399.8" as="sourcePoint" />
            <mxPoint x="1495" y="1399.8" as="targetPoint" />
          </mxGeometry>
        </mxCell>
        <mxCell id="N83Hca_KGA1fbg6AVvMD-130" value="" style="endArrow=none;html=1;rounded=0;exitX=1;exitY=0.5;exitDx=0;exitDy=0;" parent="WIyWlLk6GJQsqaUBKTNV-1" edge="1">
          <mxGeometry width="50" height="50" relative="1" as="geometry">
            <mxPoint x="1475" y="1449.8" as="sourcePoint" />
            <mxPoint x="1495" y="1449.8" as="targetPoint" />
          </mxGeometry>
        </mxCell>
        <mxCell id="N83Hca_KGA1fbg6AVvMD-136" value="" style="endArrow=none;html=1;rounded=0;exitX=0.75;exitY=1;exitDx=0;exitDy=0;" parent="WIyWlLk6GJQsqaUBKTNV-1" source="N83Hca_KGA1fbg6AVvMD-111" edge="1">
          <mxGeometry width="50" height="50" relative="1" as="geometry">
            <mxPoint x="1440" y="1150" as="sourcePoint" />
            <mxPoint x="1475" y="1220" as="targetPoint" />
            <Array as="points" />
          </mxGeometry>
        </mxCell>
        <mxCell id="N83Hca_KGA1fbg6AVvMD-150" value="tbTiposAdministradores" style="rounded=1;whiteSpace=wrap;html=1;fontSize=12;glass=0;strokeWidth=1;shadow=0;" parent="WIyWlLk6GJQsqaUBKTNV-1" vertex="1">
          <mxGeometry x="1220" y="1830" width="140" height="40" as="geometry" />
        </mxCell>
        <mxCell id="N83Hca_KGA1fbg6AVvMD-151" value="&lt;b&gt;id_tipo&lt;/b&gt;" style="ellipse;whiteSpace=wrap;html=1;fillColor=#f8cecc;strokeColor=#b85450;" parent="WIyWlLk6GJQsqaUBKTNV-1" vertex="1">
          <mxGeometry x="1190" y="1690" width="90" height="40" as="geometry" />
        </mxCell>
        <mxCell id="N83Hca_KGA1fbg6AVvMD-152" value="" style="endArrow=none;html=1;rounded=0;exitX=0;exitY=0.5;exitDx=0;exitDy=0;" parent="WIyWlLk6GJQsqaUBKTNV-1" edge="1">
          <mxGeometry width="50" height="50" relative="1" as="geometry">
            <mxPoint x="1310" y="1769.86" as="sourcePoint" />
            <mxPoint x="1280" y="1770" as="targetPoint" />
          </mxGeometry>
        </mxCell>
        <mxCell id="N83Hca_KGA1fbg6AVvMD-153" value="" style="endArrow=none;html=1;rounded=0;" parent="WIyWlLk6GJQsqaUBKTNV-1" edge="1">
          <mxGeometry width="50" height="50" relative="1" as="geometry">
            <mxPoint x="1310" y="1710" as="sourcePoint" />
            <mxPoint x="1280" y="1710" as="targetPoint" />
          </mxGeometry>
        </mxCell>
        <mxCell id="N83Hca_KGA1fbg6AVvMD-154" value="nombre_tipo" style="ellipse;whiteSpace=wrap;html=1;" parent="WIyWlLk6GJQsqaUBKTNV-1" vertex="1">
          <mxGeometry x="1190" y="1750" width="90" height="40" as="geometry" />
        </mxCell>
        <mxCell id="N83Hca_KGA1fbg6AVvMD-155" value="" style="endArrow=none;html=1;rounded=0;" parent="WIyWlLk6GJQsqaUBKTNV-1" edge="1">
          <mxGeometry width="50" height="50" relative="1" as="geometry">
            <mxPoint x="1310" y="1709.33" as="sourcePoint" />
            <mxPoint x="1310" y="1769.33" as="targetPoint" />
          </mxGeometry>
        </mxCell>
        <mxCell id="N83Hca_KGA1fbg6AVvMD-156" value="" style="endArrow=none;html=1;rounded=0;entryX=0.653;entryY=0.008;entryDx=0;entryDy=0;entryPerimeter=0;" parent="WIyWlLk6GJQsqaUBKTNV-1" target="N83Hca_KGA1fbg6AVvMD-150" edge="1">
          <mxGeometry width="50" height="50" relative="1" as="geometry">
            <mxPoint x="1310" y="1770" as="sourcePoint" />
            <mxPoint x="1370" y="1820" as="targetPoint" />
          </mxGeometry>
        </mxCell>
        <mxCell id="N83Hca_KGA1fbg6AVvMD-157" value="Administra" style="rhombus;whiteSpace=wrap;html=1;shadow=0;fontFamily=Helvetica;fontSize=12;align=center;strokeWidth=1;spacing=6;spacingTop=-4;" parent="WIyWlLk6GJQsqaUBKTNV-1" vertex="1">
          <mxGeometry x="1390" y="1560" width="100" height="80" as="geometry" />
        </mxCell>
        <mxCell id="N83Hca_KGA1fbg6AVvMD-158" value="tbAdministradores" style="rounded=1;whiteSpace=wrap;html=1;fontSize=12;glass=0;strokeWidth=1;shadow=0;" parent="WIyWlLk6GJQsqaUBKTNV-1" vertex="1">
          <mxGeometry x="1380" y="1940" width="120" height="40" as="geometry" />
        </mxCell>
        <mxCell id="N83Hca_KGA1fbg6AVvMD-159" value="&lt;b&gt;id_admin&amp;nbsp;&lt;/b&gt;" style="ellipse;whiteSpace=wrap;html=1;fillColor=#f8cecc;strokeColor=#b85450;" parent="WIyWlLk6GJQsqaUBKTNV-1" vertex="1">
          <mxGeometry x="1590" y="1860" width="90" height="40" as="geometry" />
        </mxCell>
        <mxCell id="N83Hca_KGA1fbg6AVvMD-160" value="nombre&amp;nbsp;" style="ellipse;whiteSpace=wrap;html=1;" parent="WIyWlLk6GJQsqaUBKTNV-1" vertex="1">
          <mxGeometry x="1590" y="1930" width="90" height="40" as="geometry" />
        </mxCell>
        <mxCell id="N83Hca_KGA1fbg6AVvMD-161" value="apellido&amp;nbsp;" style="ellipse;whiteSpace=wrap;html=1;" parent="WIyWlLk6GJQsqaUBKTNV-1" vertex="1">
          <mxGeometry x="1590" y="1990" width="90" height="40" as="geometry" />
        </mxCell>
        <mxCell id="N83Hca_KGA1fbg6AVvMD-162" value="usuario&amp;nbsp;" style="ellipse;whiteSpace=wrap;html=1;" parent="WIyWlLk6GJQsqaUBKTNV-1" vertex="1">
          <mxGeometry x="1590" y="2040" width="90" height="40" as="geometry" />
        </mxCell>
        <mxCell id="N83Hca_KGA1fbg6AVvMD-163" value="clave&amp;nbsp;" style="ellipse;whiteSpace=wrap;html=1;" parent="WIyWlLk6GJQsqaUBKTNV-1" vertex="1">
          <mxGeometry x="1590" y="2090" width="100" height="40" as="geometry" />
        </mxCell>
        <mxCell id="N83Hca_KGA1fbg6AVvMD-164" value="" style="endArrow=none;html=1;rounded=0;" parent="WIyWlLk6GJQsqaUBKTNV-1" edge="1">
          <mxGeometry width="50" height="50" relative="1" as="geometry">
            <mxPoint x="1570" y="2170" as="sourcePoint" />
            <mxPoint x="1570" y="1880" as="targetPoint" />
          </mxGeometry>
        </mxCell>
        <mxCell id="N83Hca_KGA1fbg6AVvMD-165" value="" style="endArrow=none;html=1;rounded=0;exitX=1;exitY=0.5;exitDx=0;exitDy=0;" parent="WIyWlLk6GJQsqaUBKTNV-1" edge="1">
          <mxGeometry width="50" height="50" relative="1" as="geometry">
            <mxPoint x="1570" y="1880" as="sourcePoint" />
            <mxPoint x="1590" y="1880" as="targetPoint" />
          </mxGeometry>
        </mxCell>
        <mxCell id="N83Hca_KGA1fbg6AVvMD-166" value="" style="endArrow=none;html=1;rounded=0;exitX=1;exitY=0.5;exitDx=0;exitDy=0;" parent="WIyWlLk6GJQsqaUBKTNV-1" edge="1">
          <mxGeometry width="50" height="50" relative="1" as="geometry">
            <mxPoint x="1570" y="1949.8" as="sourcePoint" />
            <mxPoint x="1590" y="1949.8" as="targetPoint" />
          </mxGeometry>
        </mxCell>
        <mxCell id="N83Hca_KGA1fbg6AVvMD-167" value="" style="endArrow=none;html=1;rounded=0;exitX=1;exitY=0.5;exitDx=0;exitDy=0;" parent="WIyWlLk6GJQsqaUBKTNV-1" edge="1">
          <mxGeometry width="50" height="50" relative="1" as="geometry">
            <mxPoint x="1570" y="2009.8" as="sourcePoint" />
            <mxPoint x="1590" y="2009.8" as="targetPoint" />
          </mxGeometry>
        </mxCell>
        <mxCell id="N83Hca_KGA1fbg6AVvMD-168" value="" style="endArrow=none;html=1;rounded=0;exitX=1;exitY=0.5;exitDx=0;exitDy=0;" parent="WIyWlLk6GJQsqaUBKTNV-1" edge="1">
          <mxGeometry width="50" height="50" relative="1" as="geometry">
            <mxPoint x="1570" y="2059.8" as="sourcePoint" />
            <mxPoint x="1590" y="2059.8" as="targetPoint" />
          </mxGeometry>
        </mxCell>
        <mxCell id="N83Hca_KGA1fbg6AVvMD-169" value="" style="endArrow=none;html=1;rounded=0;exitX=1;exitY=0.5;exitDx=0;exitDy=0;" parent="WIyWlLk6GJQsqaUBKTNV-1" edge="1">
          <mxGeometry width="50" height="50" relative="1" as="geometry">
            <mxPoint x="1570" y="2109.8" as="sourcePoint" />
            <mxPoint x="1590" y="2109.8" as="targetPoint" />
          </mxGeometry>
        </mxCell>
        <mxCell id="N83Hca_KGA1fbg6AVvMD-170" value="" style="endArrow=none;html=1;rounded=0;exitX=1;exitY=0.5;exitDx=0;exitDy=0;" parent="WIyWlLk6GJQsqaUBKTNV-1" source="N83Hca_KGA1fbg6AVvMD-158" edge="1">
          <mxGeometry width="50" height="50" relative="1" as="geometry">
            <mxPoint x="1510" y="1959.86" as="sourcePoint" />
            <mxPoint x="1570" y="1960" as="targetPoint" />
          </mxGeometry>
        </mxCell>
        <mxCell id="N83Hca_KGA1fbg6AVvMD-173" value="correo&amp;nbsp;" style="ellipse;whiteSpace=wrap;html=1;" parent="WIyWlLk6GJQsqaUBKTNV-1" vertex="1">
          <mxGeometry x="1590" y="2150" width="100" height="40" as="geometry" />
        </mxCell>
        <mxCell id="N83Hca_KGA1fbg6AVvMD-174" value="" style="endArrow=none;html=1;rounded=0;exitX=1;exitY=0.5;exitDx=0;exitDy=0;" parent="WIyWlLk6GJQsqaUBKTNV-1" edge="1">
          <mxGeometry width="50" height="50" relative="1" as="geometry">
            <mxPoint x="1570" y="2170" as="sourcePoint" />
            <mxPoint x="1590" y="2170" as="targetPoint" />
          </mxGeometry>
        </mxCell>
        <mxCell id="N83Hca_KGA1fbg6AVvMD-203" value="Tiene" style="rhombus;whiteSpace=wrap;html=1;shadow=0;fontFamily=Helvetica;fontSize=12;align=center;strokeWidth=1;spacing=6;spacingTop=-4;" parent="WIyWlLk6GJQsqaUBKTNV-1" vertex="1">
          <mxGeometry x="1200" y="1920" width="100" height="80" as="geometry" />
        </mxCell>
        <mxCell id="N83Hca_KGA1fbg6AVvMD-210" value="Recibe" style="rhombus;whiteSpace=wrap;html=1;shadow=0;fontFamily=Helvetica;fontSize=12;align=center;strokeWidth=1;spacing=6;spacingTop=-4;" parent="WIyWlLk6GJQsqaUBKTNV-1" vertex="1">
          <mxGeometry x="1241" y="770" width="100" height="80" as="geometry" />
        </mxCell>
        <mxCell id="N83Hca_KGA1fbg6AVvMD-211" value="Posee" style="rhombus;whiteSpace=wrap;html=1;shadow=0;fontFamily=Helvetica;fontSize=12;align=center;strokeWidth=1;spacing=6;spacingTop=-4;" parent="WIyWlLk6GJQsqaUBKTNV-1" vertex="1">
          <mxGeometry x="1920" y="880" width="100" height="80" as="geometry" />
        </mxCell>
        <mxCell id="N83Hca_KGA1fbg6AVvMD-212" value="Tiene" style="rhombus;whiteSpace=wrap;html=1;shadow=0;fontFamily=Helvetica;fontSize=12;align=center;strokeWidth=1;spacing=6;spacingTop=-4;" parent="WIyWlLk6GJQsqaUBKTNV-1" vertex="1">
          <mxGeometry x="1695" y="1120" width="100" height="80" as="geometry" />
        </mxCell>
        <mxCell id="N83Hca_KGA1fbg6AVvMD-213" value="Utiliza" style="rhombus;whiteSpace=wrap;html=1;shadow=0;fontFamily=Helvetica;fontSize=12;align=center;strokeWidth=1;spacing=6;spacingTop=-4;" parent="WIyWlLk6GJQsqaUBKTNV-1" vertex="1">
          <mxGeometry x="1510" y="760" width="100" height="80" as="geometry" />
        </mxCell>
        <mxCell id="N83Hca_KGA1fbg6AVvMD-218" value="tbMarcas" style="rounded=1;whiteSpace=wrap;html=1;fontSize=12;glass=0;strokeWidth=1;shadow=0;" parent="WIyWlLk6GJQsqaUBKTNV-1" vertex="1">
          <mxGeometry x="1230" y="600" width="120" height="40" as="geometry" />
        </mxCell>
        <mxCell id="N83Hca_KGA1fbg6AVvMD-219" value="tbDeportes" style="rounded=1;whiteSpace=wrap;html=1;fontSize=12;glass=0;strokeWidth=1;shadow=0;" parent="WIyWlLk6GJQsqaUBKTNV-1" vertex="1">
          <mxGeometry x="1500" y="600" width="120" height="40" as="geometry" />
        </mxCell>
        <mxCell id="N83Hca_KGA1fbg6AVvMD-220" value="tbGeneros" style="rounded=1;whiteSpace=wrap;html=1;fontSize=12;glass=0;strokeWidth=1;shadow=0;" parent="WIyWlLk6GJQsqaUBKTNV-1" vertex="1">
          <mxGeometry x="1910" y="760" width="120" height="40" as="geometry" />
        </mxCell>
        <mxCell id="N83Hca_KGA1fbg6AVvMD-221" value="tbCategorias" style="rounded=1;whiteSpace=wrap;html=1;fontSize=12;glass=0;strokeWidth=1;shadow=0;" parent="WIyWlLk6GJQsqaUBKTNV-1" vertex="1">
          <mxGeometry x="1920" y="1140" width="120" height="40" as="geometry" />
        </mxCell>
        <mxCell id="N83Hca_KGA1fbg6AVvMD-222" value="&lt;b&gt;id_marca&amp;nbsp;&lt;/b&gt;" style="ellipse;whiteSpace=wrap;html=1;fillColor=#f8cecc;strokeColor=#b85450;" parent="WIyWlLk6GJQsqaUBKTNV-1" vertex="1">
          <mxGeometry x="1241" y="520" width="90" height="40" as="geometry" />
        </mxCell>
        <mxCell id="N83Hca_KGA1fbg6AVvMD-233" style="edgeStyle=none;rounded=0;orthogonalLoop=1;jettySize=auto;html=1;entryX=0.5;entryY=0;entryDx=0;entryDy=0;" parent="WIyWlLk6GJQsqaUBKTNV-1" source="N83Hca_KGA1fbg6AVvMD-223" target="N83Hca_KGA1fbg6AVvMD-219" edge="1">
          <mxGeometry relative="1" as="geometry" />
        </mxCell>
        <mxCell id="N83Hca_KGA1fbg6AVvMD-223" value="&lt;b&gt;id_deporte&amp;nbsp;&lt;/b&gt;" style="ellipse;whiteSpace=wrap;html=1;fillColor=#f8cecc;strokeColor=#b85450;" parent="WIyWlLk6GJQsqaUBKTNV-1" vertex="1">
          <mxGeometry x="1515" y="520" width="90" height="40" as="geometry" />
        </mxCell>
        <mxCell id="N83Hca_KGA1fbg6AVvMD-235" style="edgeStyle=none;rounded=0;orthogonalLoop=1;jettySize=auto;html=1;" parent="WIyWlLk6GJQsqaUBKTNV-1" source="N83Hca_KGA1fbg6AVvMD-224" target="N83Hca_KGA1fbg6AVvMD-220" edge="1">
          <mxGeometry relative="1" as="geometry" />
        </mxCell>
        <mxCell id="N83Hca_KGA1fbg6AVvMD-224" value="&lt;b&gt;id_genero&amp;nbsp;&lt;/b&gt;" style="ellipse;whiteSpace=wrap;html=1;fillColor=#f8cecc;strokeColor=#b85450;" parent="WIyWlLk6GJQsqaUBKTNV-1" vertex="1">
          <mxGeometry x="1925" y="680" width="90" height="40" as="geometry" />
        </mxCell>
        <mxCell id="N83Hca_KGA1fbg6AVvMD-237" style="edgeStyle=none;rounded=0;orthogonalLoop=1;jettySize=auto;html=1;" parent="WIyWlLk6GJQsqaUBKTNV-1" source="N83Hca_KGA1fbg6AVvMD-225" target="N83Hca_KGA1fbg6AVvMD-221" edge="1">
          <mxGeometry relative="1" as="geometry" />
        </mxCell>
        <mxCell id="N83Hca_KGA1fbg6AVvMD-225" value="&lt;b&gt;id_categoria&amp;nbsp;&lt;/b&gt;" style="ellipse;whiteSpace=wrap;html=1;fillColor=#f8cecc;strokeColor=#b85450;" parent="WIyWlLk6GJQsqaUBKTNV-1" vertex="1">
          <mxGeometry x="1935" y="1080" width="90" height="40" as="geometry" />
        </mxCell>
        <mxCell id="N83Hca_KGA1fbg6AVvMD-226" value="nombre&amp;nbsp;" style="ellipse;whiteSpace=wrap;html=1;" parent="WIyWlLk6GJQsqaUBKTNV-1" vertex="1">
          <mxGeometry x="1380" y="600" width="90" height="40" as="geometry" />
        </mxCell>
        <mxCell id="N83Hca_KGA1fbg6AVvMD-234" style="edgeStyle=none;rounded=0;orthogonalLoop=1;jettySize=auto;html=1;entryX=1;entryY=0.5;entryDx=0;entryDy=0;" parent="WIyWlLk6GJQsqaUBKTNV-1" source="N83Hca_KGA1fbg6AVvMD-227" target="N83Hca_KGA1fbg6AVvMD-219" edge="1">
          <mxGeometry relative="1" as="geometry" />
        </mxCell>
        <mxCell id="N83Hca_KGA1fbg6AVvMD-227" value="nombre&amp;nbsp;" style="ellipse;whiteSpace=wrap;html=1;" parent="WIyWlLk6GJQsqaUBKTNV-1" vertex="1">
          <mxGeometry x="1654" y="600" width="90" height="40" as="geometry" />
        </mxCell>
        <mxCell id="N83Hca_KGA1fbg6AVvMD-228" value="nombre&amp;nbsp;" style="ellipse;whiteSpace=wrap;html=1;" parent="WIyWlLk6GJQsqaUBKTNV-1" vertex="1">
          <mxGeometry x="2080" y="760" width="90" height="40" as="geometry" />
        </mxCell>
        <mxCell id="N83Hca_KGA1fbg6AVvMD-238" style="edgeStyle=none;rounded=0;orthogonalLoop=1;jettySize=auto;html=1;" parent="WIyWlLk6GJQsqaUBKTNV-1" source="N83Hca_KGA1fbg6AVvMD-229" target="N83Hca_KGA1fbg6AVvMD-221" edge="1">
          <mxGeometry relative="1" as="geometry" />
        </mxCell>
        <mxCell id="N83Hca_KGA1fbg6AVvMD-229" value="nombre&amp;nbsp;" style="ellipse;whiteSpace=wrap;html=1;" parent="WIyWlLk6GJQsqaUBKTNV-1" vertex="1">
          <mxGeometry x="2080" y="1140" width="90" height="40" as="geometry" />
        </mxCell>
        <mxCell id="N83Hca_KGA1fbg6AVvMD-231" style="edgeStyle=none;rounded=0;orthogonalLoop=1;jettySize=auto;html=1;entryX=0.418;entryY=0.005;entryDx=0;entryDy=0;entryPerimeter=0;" parent="WIyWlLk6GJQsqaUBKTNV-1" source="N83Hca_KGA1fbg6AVvMD-222" target="N83Hca_KGA1fbg6AVvMD-218" edge="1">
          <mxGeometry relative="1" as="geometry" />
        </mxCell>
        <mxCell id="N83Hca_KGA1fbg6AVvMD-232" style="edgeStyle=none;rounded=0;orthogonalLoop=1;jettySize=auto;html=1;entryX=1;entryY=0.5;entryDx=0;entryDy=0;" parent="WIyWlLk6GJQsqaUBKTNV-1" source="N83Hca_KGA1fbg6AVvMD-226" target="N83Hca_KGA1fbg6AVvMD-218" edge="1">
          <mxGeometry relative="1" as="geometry" />
        </mxCell>
        <mxCell id="N83Hca_KGA1fbg6AVvMD-236" style="edgeStyle=none;rounded=0;orthogonalLoop=1;jettySize=auto;html=1;entryX=1;entryY=0.5;entryDx=0;entryDy=0;" parent="WIyWlLk6GJQsqaUBKTNV-1" source="N83Hca_KGA1fbg6AVvMD-228" target="N83Hca_KGA1fbg6AVvMD-220" edge="1">
          <mxGeometry relative="1" as="geometry" />
        </mxCell>
        <mxCell id="N83Hca_KGA1fbg6AVvMD-252" value="tbImagenes" style="rounded=1;whiteSpace=wrap;html=1;fontSize=12;glass=0;strokeWidth=1;shadow=0;" parent="WIyWlLk6GJQsqaUBKTNV-1" vertex="1">
          <mxGeometry x="950" y="1440" width="120" height="40" as="geometry" />
        </mxCell>
        <mxCell id="N83Hca_KGA1fbg6AVvMD-253" value="&lt;b&gt;id_imagen&amp;nbsp;&lt;/b&gt;" style="ellipse;whiteSpace=wrap;html=1;fillColor=#f8cecc;strokeColor=#b85450;" parent="WIyWlLk6GJQsqaUBKTNV-1" vertex="1">
          <mxGeometry x="1010" y="1510" width="90" height="40" as="geometry" />
        </mxCell>
        <mxCell id="N83Hca_KGA1fbg6AVvMD-254" value="nombre_imagen&amp;nbsp;" style="ellipse;whiteSpace=wrap;html=1;" parent="WIyWlLk6GJQsqaUBKTNV-1" vertex="1">
          <mxGeometry x="1010" y="1570" width="100" height="40" as="geometry" />
        </mxCell>
        <mxCell id="N83Hca_KGA1fbg6AVvMD-257" value="" style="endArrow=none;html=1;rounded=0;exitX=1;exitY=0.5;exitDx=0;exitDy=0;" parent="WIyWlLk6GJQsqaUBKTNV-1" edge="1">
          <mxGeometry width="50" height="50" relative="1" as="geometry">
            <mxPoint x="990" y="1529.8" as="sourcePoint" />
            <mxPoint x="1010" y="1529.8" as="targetPoint" />
          </mxGeometry>
        </mxCell>
        <mxCell id="N83Hca_KGA1fbg6AVvMD-258" value="" style="endArrow=none;html=1;rounded=0;exitX=1;exitY=0.5;exitDx=0;exitDy=0;" parent="WIyWlLk6GJQsqaUBKTNV-1" edge="1">
          <mxGeometry width="50" height="50" relative="1" as="geometry">
            <mxPoint x="990" y="1589.8" as="sourcePoint" />
            <mxPoint x="1010" y="1589.8" as="targetPoint" />
          </mxGeometry>
        </mxCell>
        <mxCell id="N83Hca_KGA1fbg6AVvMD-261" value="" style="endArrow=none;html=1;rounded=0;entryX=0.327;entryY=1.075;entryDx=0;entryDy=0;entryPerimeter=0;" parent="WIyWlLk6GJQsqaUBKTNV-1" target="N83Hca_KGA1fbg6AVvMD-252" edge="1">
          <mxGeometry width="50" height="50" relative="1" as="geometry">
            <mxPoint x="990" y="1590" as="sourcePoint" />
            <mxPoint x="989" y="1530" as="targetPoint" />
          </mxGeometry>
        </mxCell>
        <mxCell id="1x7zd5vSG2o3FXKxxCGR-0" value="" style="endArrow=none;html=1;rounded=0;exitX=0.827;exitY=0.676;exitDx=0;exitDy=0;exitPerimeter=0;" parent="WIyWlLk6GJQsqaUBKTNV-1" target="N83Hca_KGA1fbg6AVvMD-262" edge="1">
          <mxGeometry width="50" height="50" relative="1" as="geometry">
            <mxPoint x="1160" y="1344" as="sourcePoint" />
            <mxPoint x="1190" y="1370" as="targetPoint" />
            <Array as="points" />
          </mxGeometry>
        </mxCell>
        <mxCell id="N83Hca_KGA1fbg6AVvMD-262" value="Tiene" style="rhombus;whiteSpace=wrap;html=1;shadow=0;fontFamily=Helvetica;fontSize=12;align=center;strokeWidth=1;spacing=6;spacingTop=-4;" parent="WIyWlLk6GJQsqaUBKTNV-1" vertex="1">
          <mxGeometry x="1110" y="1310" width="100" height="80" as="geometry" />
        </mxCell>
        <mxCell id="b2kp6KdMQlq8Cz1gL0IX-0" value="" style="endArrow=none;html=1;rounded=0;entryX=0;entryY=0.5;entryDx=0;entryDy=0;exitX=0.5;exitY=0;exitDx=0;exitDy=0;" parent="WIyWlLk6GJQsqaUBKTNV-1" source="WIyWlLk6GJQsqaUBKTNV-11" target="WIyWlLk6GJQsqaUBKTNV-10" edge="1">
          <mxGeometry width="50" height="50" relative="1" as="geometry">
            <mxPoint x="220" y="680" as="sourcePoint" />
            <mxPoint x="270" y="630" as="targetPoint" />
            <Array as="points">
              <mxPoint x="220" y="560" />
            </Array>
          </mxGeometry>
        </mxCell>
        <mxCell id="b2kp6KdMQlq8Cz1gL0IX-4" value="1 : N" style="edgeLabel;html=1;align=center;verticalAlign=middle;resizable=0;points=[];" parent="b2kp6KdMQlq8Cz1gL0IX-0" vertex="1" connectable="0">
          <mxGeometry x="0.5242" y="-5" relative="1" as="geometry">
            <mxPoint as="offset" />
          </mxGeometry>
        </mxCell>
        <mxCell id="b2kp6KdMQlq8Cz1gL0IX-1" value="" style="endArrow=none;html=1;rounded=0;exitX=1;exitY=0.5;exitDx=0;exitDy=0;entryX=0.5;entryY=0;entryDx=0;entryDy=0;" parent="WIyWlLk6GJQsqaUBKTNV-1" source="WIyWlLk6GJQsqaUBKTNV-10" target="WIyWlLk6GJQsqaUBKTNV-12" edge="1">
          <mxGeometry width="50" height="50" relative="1" as="geometry">
            <mxPoint x="460" y="580" as="sourcePoint" />
            <mxPoint x="510" y="530" as="targetPoint" />
            <Array as="points">
              <mxPoint x="490" y="560" />
            </Array>
          </mxGeometry>
        </mxCell>
        <mxCell id="b2kp6KdMQlq8Cz1gL0IX-5" value="1 : N" style="edgeLabel;html=1;align=center;verticalAlign=middle;resizable=0;points=[];" parent="b2kp6KdMQlq8Cz1gL0IX-1" vertex="1" connectable="0">
          <mxGeometry x="-0.6726" y="1" relative="1" as="geometry">
            <mxPoint as="offset" />
          </mxGeometry>
        </mxCell>
        <mxCell id="b2kp6KdMQlq8Cz1gL0IX-6" value="" style="endArrow=none;html=1;rounded=0;entryX=0.5;entryY=1;entryDx=0;entryDy=0;exitX=0.5;exitY=0;exitDx=0;exitDy=0;" parent="WIyWlLk6GJQsqaUBKTNV-1" source="N83Hca_KGA1fbg6AVvMD-44" target="WIyWlLk6GJQsqaUBKTNV-12" edge="1">
          <mxGeometry width="50" height="50" relative="1" as="geometry">
            <mxPoint x="440" y="840" as="sourcePoint" />
            <mxPoint x="490" y="790" as="targetPoint" />
          </mxGeometry>
        </mxCell>
        <mxCell id="b2kp6KdMQlq8Cz1gL0IX-10" value="1 : N" style="edgeLabel;html=1;align=center;verticalAlign=middle;resizable=0;points=[];" parent="b2kp6KdMQlq8Cz1gL0IX-6" vertex="1" connectable="0">
          <mxGeometry x="0.1727" y="-1" relative="1" as="geometry">
            <mxPoint as="offset" />
          </mxGeometry>
        </mxCell>
        <mxCell id="b2kp6KdMQlq8Cz1gL0IX-8" value="" style="endArrow=none;html=1;rounded=0;exitX=1;exitY=0.5;exitDx=0;exitDy=0;" parent="WIyWlLk6GJQsqaUBKTNV-1" source="N83Hca_KGA1fbg6AVvMD-49" edge="1">
          <mxGeometry width="50" height="50" relative="1" as="geometry">
            <mxPoint x="370" y="1190" as="sourcePoint" />
            <mxPoint x="410" y="1130" as="targetPoint" />
            <Array as="points">
              <mxPoint x="410" y="1189" />
            </Array>
          </mxGeometry>
        </mxCell>
        <mxCell id="b2kp6KdMQlq8Cz1gL0IX-9" value="" style="endArrow=none;html=1;rounded=0;entryX=0.5;entryY=1;entryDx=0;entryDy=0;exitX=0.5;exitY=0;exitDx=0;exitDy=0;" parent="WIyWlLk6GJQsqaUBKTNV-1" source="N83Hca_KGA1fbg6AVvMD-47" target="N83Hca_KGA1fbg6AVvMD-44" edge="1">
          <mxGeometry width="50" height="50" relative="1" as="geometry">
            <mxPoint x="510" y="970" as="sourcePoint" />
            <mxPoint x="560" y="920" as="targetPoint" />
          </mxGeometry>
        </mxCell>
        <mxCell id="b2kp6KdMQlq8Cz1gL0IX-11" value="1 : N" style="edgeLabel;html=1;align=center;verticalAlign=middle;resizable=0;points=[];" parent="b2kp6KdMQlq8Cz1gL0IX-9" vertex="1" connectable="0">
          <mxGeometry x="0.6752" y="-1" relative="1" as="geometry">
            <mxPoint as="offset" />
          </mxGeometry>
        </mxCell>
        <mxCell id="b2kp6KdMQlq8Cz1gL0IX-13" value="" style="endArrow=none;html=1;rounded=0;exitX=1;exitY=0.5;exitDx=0;exitDy=0;entryX=0;entryY=0.5;entryDx=0;entryDy=0;" parent="WIyWlLk6GJQsqaUBKTNV-1" source="N83Hca_KGA1fbg6AVvMD-47" target="N83Hca_KGA1fbg6AVvMD-103" edge="1">
          <mxGeometry width="50" height="50" relative="1" as="geometry">
            <mxPoint x="620" y="1110" as="sourcePoint" />
            <mxPoint x="670" y="1060" as="targetPoint" />
          </mxGeometry>
        </mxCell>
        <mxCell id="b2kp6KdMQlq8Cz1gL0IX-15" value="N : 1" style="edgeLabel;html=1;align=center;verticalAlign=middle;resizable=0;points=[];" parent="b2kp6KdMQlq8Cz1gL0IX-13" vertex="1" connectable="0">
          <mxGeometry x="0.0114" y="-3" relative="1" as="geometry">
            <mxPoint as="offset" />
          </mxGeometry>
        </mxCell>
        <mxCell id="b2kp6KdMQlq8Cz1gL0IX-14" value="" style="endArrow=none;html=1;rounded=0;entryX=0;entryY=0.5;entryDx=0;entryDy=0;exitX=1;exitY=0.5;exitDx=0;exitDy=0;" parent="WIyWlLk6GJQsqaUBKTNV-1" source="N83Hca_KGA1fbg6AVvMD-103" target="N83Hca_KGA1fbg6AVvMD-91" edge="1">
          <mxGeometry width="50" height="50" relative="1" as="geometry">
            <mxPoint x="760" y="1180" as="sourcePoint" />
            <mxPoint x="810" y="1130" as="targetPoint" />
          </mxGeometry>
        </mxCell>
        <mxCell id="b2kp6KdMQlq8Cz1gL0IX-23" value="N : 1" style="edgeLabel;html=1;align=center;verticalAlign=middle;resizable=0;points=[];" parent="b2kp6KdMQlq8Cz1gL0IX-14" vertex="1" connectable="0">
          <mxGeometry x="-0.0084" y="-3" relative="1" as="geometry">
            <mxPoint as="offset" />
          </mxGeometry>
        </mxCell>
        <mxCell id="b2kp6KdMQlq8Cz1gL0IX-16" value="&lt;b&gt;id_detalle_producto&lt;/b&gt;" style="ellipse;whiteSpace=wrap;html=1;fillColor=#dae8fc;strokeColor=#6c8ebf;" parent="WIyWlLk6GJQsqaUBKTNV-1" vertex="1">
          <mxGeometry x="250" y="930" width="120" height="40" as="geometry" />
        </mxCell>
        <mxCell id="b2kp6KdMQlq8Cz1gL0IX-17" value="" style="endArrow=none;html=1;rounded=0;exitX=1;exitY=0.5;exitDx=0;exitDy=0;" parent="WIyWlLk6GJQsqaUBKTNV-1" source="b2kp6KdMQlq8Cz1gL0IX-16" edge="1">
          <mxGeometry width="50" height="50" relative="1" as="geometry">
            <mxPoint x="390" y="1000" as="sourcePoint" />
            <mxPoint x="410" y="1020" as="targetPoint" />
            <Array as="points">
              <mxPoint x="410" y="950" />
            </Array>
          </mxGeometry>
        </mxCell>
        <mxCell id="b2kp6KdMQlq8Cz1gL0IX-19" value="" style="endArrow=none;html=1;rounded=0;entryX=0.5;entryY=1;entryDx=0;entryDy=0;" parent="WIyWlLk6GJQsqaUBKTNV-1" source="N83Hca_KGA1fbg6AVvMD-71" target="N83Hca_KGA1fbg6AVvMD-47" edge="1">
          <mxGeometry width="50" height="50" relative="1" as="geometry">
            <mxPoint x="510" y="1110" as="sourcePoint" />
            <mxPoint x="560" y="1060" as="targetPoint" />
          </mxGeometry>
        </mxCell>
        <mxCell id="b2kp6KdMQlq8Cz1gL0IX-21" value="1 : 1" style="edgeLabel;html=1;align=center;verticalAlign=middle;resizable=0;points=[];" parent="b2kp6KdMQlq8Cz1gL0IX-19" vertex="1" connectable="0">
          <mxGeometry x="0.243" relative="1" as="geometry">
            <mxPoint as="offset" />
          </mxGeometry>
        </mxCell>
        <mxCell id="b2kp6KdMQlq8Cz1gL0IX-20" value="" style="endArrow=none;html=1;rounded=0;entryX=0.5;entryY=1;entryDx=0;entryDy=0;exitX=0.5;exitY=0;exitDx=0;exitDy=0;" parent="WIyWlLk6GJQsqaUBKTNV-1" source="N83Hca_KGA1fbg6AVvMD-63" target="N83Hca_KGA1fbg6AVvMD-71" edge="1">
          <mxGeometry width="50" height="50" relative="1" as="geometry">
            <mxPoint x="520" y="1310" as="sourcePoint" />
            <mxPoint x="570" y="1260" as="targetPoint" />
          </mxGeometry>
        </mxCell>
        <mxCell id="b2kp6KdMQlq8Cz1gL0IX-22" value="1 : 1" style="edgeLabel;html=1;align=center;verticalAlign=middle;resizable=0;points=[];" parent="b2kp6KdMQlq8Cz1gL0IX-20" vertex="1" connectable="0">
          <mxGeometry x="0.2198" y="1" relative="1" as="geometry">
            <mxPoint as="offset" />
          </mxGeometry>
        </mxCell>
        <mxCell id="b2kp6KdMQlq8Cz1gL0IX-25" value="" style="endArrow=none;html=1;rounded=0;entryX=0.5;entryY=1;entryDx=0;entryDy=0;exitX=0.5;exitY=0;exitDx=0;exitDy=0;" parent="WIyWlLk6GJQsqaUBKTNV-1" source="N83Hca_KGA1fbg6AVvMD-98" target="N83Hca_KGA1fbg6AVvMD-84" edge="1">
          <mxGeometry width="50" height="50" relative="1" as="geometry">
            <mxPoint x="800" y="860" as="sourcePoint" />
            <mxPoint x="850" y="810" as="targetPoint" />
          </mxGeometry>
        </mxCell>
        <mxCell id="b2kp6KdMQlq8Cz1gL0IX-27" value="1 : N" style="edgeLabel;html=1;align=center;verticalAlign=middle;resizable=0;points=[];" parent="b2kp6KdMQlq8Cz1gL0IX-25" vertex="1" connectable="0">
          <mxGeometry x="0.0359" y="-1" relative="1" as="geometry">
            <mxPoint as="offset" />
          </mxGeometry>
        </mxCell>
        <mxCell id="b2kp6KdMQlq8Cz1gL0IX-26" value="" style="endArrow=none;html=1;rounded=0;entryX=0.5;entryY=0;entryDx=0;entryDy=0;exitX=0.5;exitY=1;exitDx=0;exitDy=0;" parent="WIyWlLk6GJQsqaUBKTNV-1" source="N83Hca_KGA1fbg6AVvMD-98" target="N83Hca_KGA1fbg6AVvMD-91" edge="1">
          <mxGeometry width="50" height="50" relative="1" as="geometry">
            <mxPoint x="700" y="950" as="sourcePoint" />
            <mxPoint x="750" y="900" as="targetPoint" />
          </mxGeometry>
        </mxCell>
        <mxCell id="b2kp6KdMQlq8Cz1gL0IX-28" value="1 : N" style="edgeLabel;html=1;align=center;verticalAlign=middle;resizable=0;points=[];" parent="b2kp6KdMQlq8Cz1gL0IX-26" vertex="1" connectable="0">
          <mxGeometry x="-0.1527" y="-1" relative="1" as="geometry">
            <mxPoint as="offset" />
          </mxGeometry>
        </mxCell>
        <mxCell id="b2kp6KdMQlq8Cz1gL0IX-30" value="&lt;b&gt;id_producto&lt;/b&gt;" style="ellipse;whiteSpace=wrap;html=1;fillColor=#dae8fc;strokeColor=#6c8ebf;" parent="WIyWlLk6GJQsqaUBKTNV-1" vertex="1">
          <mxGeometry x="1040" y="1020" width="90" height="40" as="geometry" />
        </mxCell>
        <mxCell id="b2kp6KdMQlq8Cz1gL0IX-31" value="" style="endArrow=none;html=1;rounded=0;exitX=0;exitY=0.5;exitDx=0;exitDy=0;" parent="WIyWlLk6GJQsqaUBKTNV-1" source="b2kp6KdMQlq8Cz1gL0IX-30" edge="1">
          <mxGeometry width="50" height="50" relative="1" as="geometry">
            <mxPoint x="969.2893218813452" y="1090" as="sourcePoint" />
            <mxPoint x="1020" y="980" as="targetPoint" />
            <Array as="points">
              <mxPoint x="1020" y="1040" />
            </Array>
          </mxGeometry>
        </mxCell>
        <mxCell id="b2kp6KdMQlq8Cz1gL0IX-32" value="&lt;b&gt;id_talla&lt;/b&gt;" style="ellipse;whiteSpace=wrap;html=1;fillColor=#dae8fc;strokeColor=#6c8ebf;" parent="WIyWlLk6GJQsqaUBKTNV-1" vertex="1">
          <mxGeometry x="1040" y="1070" width="90" height="40" as="geometry" />
        </mxCell>
        <mxCell id="b2kp6KdMQlq8Cz1gL0IX-33" value="" style="endArrow=none;html=1;rounded=0;exitX=0;exitY=0.5;exitDx=0;exitDy=0;" parent="WIyWlLk6GJQsqaUBKTNV-1" source="b2kp6KdMQlq8Cz1gL0IX-32" edge="1">
          <mxGeometry width="50" height="50" relative="1" as="geometry">
            <mxPoint x="1030" y="1090" as="sourcePoint" />
            <mxPoint x="1020" y="1040" as="targetPoint" />
            <Array as="points">
              <mxPoint x="1020" y="1090" />
            </Array>
          </mxGeometry>
        </mxCell>
        <mxCell id="b2kp6KdMQlq8Cz1gL0IX-36" value="" style="endArrow=none;html=1;rounded=0;exitX=0.5;exitY=0;exitDx=0;exitDy=0;entryX=0.209;entryY=0.996;entryDx=0;entryDy=0;entryPerimeter=0;" parent="WIyWlLk6GJQsqaUBKTNV-1" source="N83Hca_KGA1fbg6AVvMD-203" target="N83Hca_KGA1fbg6AVvMD-150" edge="1">
          <mxGeometry width="50" height="50" relative="1" as="geometry">
            <mxPoint x="1360" y="1920" as="sourcePoint" />
            <mxPoint x="1410" y="1870" as="targetPoint" />
          </mxGeometry>
        </mxCell>
        <mxCell id="b2kp6KdMQlq8Cz1gL0IX-58" value="1 : N" style="edgeLabel;html=1;align=center;verticalAlign=middle;resizable=0;points=[];" parent="b2kp6KdMQlq8Cz1gL0IX-36" vertex="1" connectable="0">
          <mxGeometry x="-0.3083" y="2" relative="1" as="geometry">
            <mxPoint as="offset" />
          </mxGeometry>
        </mxCell>
        <mxCell id="b2kp6KdMQlq8Cz1gL0IX-37" value="" style="endArrow=none;html=1;rounded=0;entryX=0;entryY=0.5;entryDx=0;entryDy=0;exitX=1;exitY=0.5;exitDx=0;exitDy=0;" parent="WIyWlLk6GJQsqaUBKTNV-1" source="N83Hca_KGA1fbg6AVvMD-203" target="N83Hca_KGA1fbg6AVvMD-158" edge="1">
          <mxGeometry width="50" height="50" relative="1" as="geometry">
            <mxPoint x="1330" y="2050" as="sourcePoint" />
            <mxPoint x="1380" y="2000" as="targetPoint" />
          </mxGeometry>
        </mxCell>
        <mxCell id="b2kp6KdMQlq8Cz1gL0IX-59" value="1 : N" style="edgeLabel;html=1;align=center;verticalAlign=middle;resizable=0;points=[];" parent="b2kp6KdMQlq8Cz1gL0IX-37" vertex="1" connectable="0">
          <mxGeometry x="-0.1235" relative="1" as="geometry">
            <mxPoint as="offset" />
          </mxGeometry>
        </mxCell>
        <mxCell id="b2kp6KdMQlq8Cz1gL0IX-38" value="" style="endArrow=none;html=1;rounded=0;entryX=0.5;entryY=1;entryDx=0;entryDy=0;exitX=0.5;exitY=0;exitDx=0;exitDy=0;" parent="WIyWlLk6GJQsqaUBKTNV-1" source="N83Hca_KGA1fbg6AVvMD-158" target="N83Hca_KGA1fbg6AVvMD-157" edge="1">
          <mxGeometry width="50" height="50" relative="1" as="geometry">
            <mxPoint x="1410" y="1780" as="sourcePoint" />
            <mxPoint x="1460" y="1730" as="targetPoint" />
          </mxGeometry>
        </mxCell>
        <mxCell id="b2kp6KdMQlq8Cz1gL0IX-60" value="1 : N" style="edgeLabel;html=1;align=center;verticalAlign=middle;resizable=0;points=[];" parent="b2kp6KdMQlq8Cz1gL0IX-38" vertex="1" connectable="0">
          <mxGeometry x="0.447" y="1" relative="1" as="geometry">
            <mxPoint as="offset" />
          </mxGeometry>
        </mxCell>
        <mxCell id="b2kp6KdMQlq8Cz1gL0IX-39" value="" style="endArrow=none;html=1;rounded=0;entryX=0.5;entryY=1;entryDx=0;entryDy=0;exitX=0.5;exitY=0;exitDx=0;exitDy=0;" parent="WIyWlLk6GJQsqaUBKTNV-1" source="N83Hca_KGA1fbg6AVvMD-157" target="N83Hca_KGA1fbg6AVvMD-111" edge="1">
          <mxGeometry width="50" height="50" relative="1" as="geometry">
            <mxPoint x="1370" y="1540" as="sourcePoint" />
            <mxPoint x="1420" y="1490" as="targetPoint" />
          </mxGeometry>
        </mxCell>
        <mxCell id="b2kp6KdMQlq8Cz1gL0IX-61" value="1 : N" style="edgeLabel;html=1;align=center;verticalAlign=middle;resizable=0;points=[];" parent="b2kp6KdMQlq8Cz1gL0IX-39" vertex="1" connectable="0">
          <mxGeometry x="-0.5956" y="2" relative="1" as="geometry">
            <mxPoint as="offset" />
          </mxGeometry>
        </mxCell>
        <mxCell id="b2kp6KdMQlq8Cz1gL0IX-40" value="&lt;b&gt;id_producto&lt;/b&gt;" style="ellipse;whiteSpace=wrap;html=1;fillColor=#dae8fc;strokeColor=#6c8ebf;" parent="WIyWlLk6GJQsqaUBKTNV-1" vertex="1">
          <mxGeometry x="1010" y="1620" width="90" height="40" as="geometry" />
        </mxCell>
        <mxCell id="b2kp6KdMQlq8Cz1gL0IX-41" value="" style="endArrow=none;html=1;rounded=0;exitX=0;exitY=0.5;exitDx=0;exitDy=0;" parent="WIyWlLk6GJQsqaUBKTNV-1" source="b2kp6KdMQlq8Cz1gL0IX-40" edge="1">
          <mxGeometry width="50" height="50" relative="1" as="geometry">
            <mxPoint x="930" y="1670" as="sourcePoint" />
            <mxPoint x="990" y="1590" as="targetPoint" />
            <Array as="points">
              <mxPoint x="990" y="1640" />
            </Array>
          </mxGeometry>
        </mxCell>
        <mxCell id="b2kp6KdMQlq8Cz1gL0IX-42" value="&lt;b&gt;id_tipo&lt;/b&gt;" style="ellipse;whiteSpace=wrap;html=1;fillColor=#dae8fc;strokeColor=#6c8ebf;" parent="WIyWlLk6GJQsqaUBKTNV-1" vertex="1">
          <mxGeometry x="1595" y="2200" width="90" height="40" as="geometry" />
        </mxCell>
        <mxCell id="b2kp6KdMQlq8Cz1gL0IX-43" value="" style="endArrow=none;html=1;rounded=0;exitX=0;exitY=0.5;exitDx=0;exitDy=0;" parent="WIyWlLk6GJQsqaUBKTNV-1" source="b2kp6KdMQlq8Cz1gL0IX-42" edge="1">
          <mxGeometry width="50" height="50" relative="1" as="geometry">
            <mxPoint x="1510" y="2260" as="sourcePoint" />
            <mxPoint x="1570" y="2170" as="targetPoint" />
            <Array as="points">
              <mxPoint x="1570" y="2220" />
            </Array>
          </mxGeometry>
        </mxCell>
        <mxCell id="b2kp6KdMQlq8Cz1gL0IX-46" value="" style="endArrow=none;html=1;rounded=0;" parent="WIyWlLk6GJQsqaUBKTNV-1" edge="1">
          <mxGeometry width="50" height="50" relative="1" as="geometry">
            <mxPoint x="1470" y="1260" as="sourcePoint" />
            <mxPoint x="1640" y="1260" as="targetPoint" />
          </mxGeometry>
        </mxCell>
        <mxCell id="b2kp6KdMQlq8Cz1gL0IX-47" value="" style="endArrow=none;html=1;rounded=0;" parent="WIyWlLk6GJQsqaUBKTNV-1" edge="1">
          <mxGeometry width="50" height="50" relative="1" as="geometry">
            <mxPoint x="1640" y="1500" as="sourcePoint" />
            <mxPoint x="1640" y="1260" as="targetPoint" />
          </mxGeometry>
        </mxCell>
        <mxCell id="b2kp6KdMQlq8Cz1gL0IX-48" value="&lt;b&gt;id_categoria&lt;/b&gt;" style="ellipse;whiteSpace=wrap;html=1;fillColor=#dae8fc;strokeColor=#6c8ebf;" parent="WIyWlLk6GJQsqaUBKTNV-1" vertex="1">
          <mxGeometry x="1670" y="1240" width="90" height="40" as="geometry" />
        </mxCell>
        <mxCell id="b2kp6KdMQlq8Cz1gL0IX-49" value="&lt;b&gt;id_admin&lt;/b&gt;" style="ellipse;whiteSpace=wrap;html=1;fillColor=#dae8fc;strokeColor=#6c8ebf;" parent="WIyWlLk6GJQsqaUBKTNV-1" vertex="1">
          <mxGeometry x="1670" y="1300" width="90" height="40" as="geometry" />
        </mxCell>
        <mxCell id="b2kp6KdMQlq8Cz1gL0IX-50" value="&lt;b&gt;id_marca&lt;/b&gt;" style="ellipse;whiteSpace=wrap;html=1;fillColor=#dae8fc;strokeColor=#6c8ebf;" parent="WIyWlLk6GJQsqaUBKTNV-1" vertex="1">
          <mxGeometry x="1670" y="1360" width="90" height="40" as="geometry" />
        </mxCell>
        <mxCell id="b2kp6KdMQlq8Cz1gL0IX-51" value="&lt;b&gt;id_deporte&lt;/b&gt;" style="ellipse;whiteSpace=wrap;html=1;fillColor=#dae8fc;strokeColor=#6c8ebf;" parent="WIyWlLk6GJQsqaUBKTNV-1" vertex="1">
          <mxGeometry x="1670" y="1420" width="90" height="40" as="geometry" />
        </mxCell>
        <mxCell id="b2kp6KdMQlq8Cz1gL0IX-52" value="&lt;b&gt;id_genero&lt;/b&gt;" style="ellipse;whiteSpace=wrap;html=1;fillColor=#dae8fc;strokeColor=#6c8ebf;" parent="WIyWlLk6GJQsqaUBKTNV-1" vertex="1">
          <mxGeometry x="1670" y="1480" width="90" height="40" as="geometry" />
        </mxCell>
        <mxCell id="b2kp6KdMQlq8Cz1gL0IX-53" value="" style="endArrow=none;html=1;rounded=0;entryX=0;entryY=0.5;entryDx=0;entryDy=0;" parent="WIyWlLk6GJQsqaUBKTNV-1" target="b2kp6KdMQlq8Cz1gL0IX-52" edge="1">
          <mxGeometry width="50" height="50" relative="1" as="geometry">
            <mxPoint x="1640" y="1500" as="sourcePoint" />
            <mxPoint x="1690" y="1520" as="targetPoint" />
          </mxGeometry>
        </mxCell>
        <mxCell id="b2kp6KdMQlq8Cz1gL0IX-54" value="" style="endArrow=none;html=1;rounded=0;entryX=0;entryY=0.5;entryDx=0;entryDy=0;" parent="WIyWlLk6GJQsqaUBKTNV-1" target="b2kp6KdMQlq8Cz1gL0IX-51" edge="1">
          <mxGeometry width="50" height="50" relative="1" as="geometry">
            <mxPoint x="1640" y="1440" as="sourcePoint" />
            <mxPoint x="1720" y="1440" as="targetPoint" />
          </mxGeometry>
        </mxCell>
        <mxCell id="b2kp6KdMQlq8Cz1gL0IX-55" value="" style="endArrow=none;html=1;rounded=0;entryX=0;entryY=0.5;entryDx=0;entryDy=0;" parent="WIyWlLk6GJQsqaUBKTNV-1" target="b2kp6KdMQlq8Cz1gL0IX-50" edge="1">
          <mxGeometry width="50" height="50" relative="1" as="geometry">
            <mxPoint x="1640" y="1380" as="sourcePoint" />
            <mxPoint x="1660" y="1390" as="targetPoint" />
          </mxGeometry>
        </mxCell>
        <mxCell id="b2kp6KdMQlq8Cz1gL0IX-56" value="" style="endArrow=none;html=1;rounded=0;entryX=0;entryY=0.5;entryDx=0;entryDy=0;" parent="WIyWlLk6GJQsqaUBKTNV-1" target="b2kp6KdMQlq8Cz1gL0IX-49" edge="1">
          <mxGeometry width="50" height="50" relative="1" as="geometry">
            <mxPoint x="1640" y="1320" as="sourcePoint" />
            <mxPoint x="1690" y="1360" as="targetPoint" />
          </mxGeometry>
        </mxCell>
        <mxCell id="b2kp6KdMQlq8Cz1gL0IX-57" value="" style="endArrow=none;html=1;rounded=0;entryX=0;entryY=0.5;entryDx=0;entryDy=0;" parent="WIyWlLk6GJQsqaUBKTNV-1" target="b2kp6KdMQlq8Cz1gL0IX-48" edge="1">
          <mxGeometry width="50" height="50" relative="1" as="geometry">
            <mxPoint x="1640" y="1260" as="sourcePoint" />
            <mxPoint x="1660" y="1290" as="targetPoint" />
          </mxGeometry>
        </mxCell>
        <mxCell id="b2kp6KdMQlq8Cz1gL0IX-62" value="" style="endArrow=none;html=1;rounded=0;entryX=0.5;entryY=1;entryDx=0;entryDy=0;exitX=0.5;exitY=0;exitDx=0;exitDy=0;" parent="WIyWlLk6GJQsqaUBKTNV-1" source="N83Hca_KGA1fbg6AVvMD-210" target="N83Hca_KGA1fbg6AVvMD-218" edge="1">
          <mxGeometry width="50" height="50" relative="1" as="geometry">
            <mxPoint x="1340" y="760" as="sourcePoint" />
            <mxPoint x="1390" y="710" as="targetPoint" />
          </mxGeometry>
        </mxCell>
        <mxCell id="b2kp6KdMQlq8Cz1gL0IX-75" value="1 : N" style="edgeLabel;html=1;align=center;verticalAlign=middle;resizable=0;points=[];" parent="b2kp6KdMQlq8Cz1gL0IX-62" vertex="1" connectable="0">
          <mxGeometry x="-0.3385" relative="1" as="geometry">
            <mxPoint as="offset" />
          </mxGeometry>
        </mxCell>
        <mxCell id="b2kp6KdMQlq8Cz1gL0IX-63" value="" style="endArrow=none;html=1;rounded=0;entryX=0.5;entryY=1;entryDx=0;entryDy=0;exitX=0.5;exitY=0;exitDx=0;exitDy=0;" parent="WIyWlLk6GJQsqaUBKTNV-1" source="N83Hca_KGA1fbg6AVvMD-111" target="N83Hca_KGA1fbg6AVvMD-210" edge="1">
          <mxGeometry width="50" height="50" relative="1" as="geometry">
            <mxPoint x="1330" y="940" as="sourcePoint" />
            <mxPoint x="1380" y="890" as="targetPoint" />
            <Array as="points">
              <mxPoint x="1445" y="1080" />
              <mxPoint x="1291" y="1080" />
            </Array>
          </mxGeometry>
        </mxCell>
        <mxCell id="b2kp6KdMQlq8Cz1gL0IX-76" value="1 : N" style="edgeLabel;html=1;align=center;verticalAlign=middle;resizable=0;points=[];" parent="b2kp6KdMQlq8Cz1gL0IX-63" vertex="1" connectable="0">
          <mxGeometry x="0.6261" y="1" relative="1" as="geometry">
            <mxPoint as="offset" />
          </mxGeometry>
        </mxCell>
        <mxCell id="b2kp6KdMQlq8Cz1gL0IX-65" value="" style="endArrow=none;html=1;rounded=0;entryX=0.5;entryY=0;entryDx=0;entryDy=0;exitX=0.5;exitY=1;exitDx=0;exitDy=0;" parent="WIyWlLk6GJQsqaUBKTNV-1" source="N83Hca_KGA1fbg6AVvMD-219" target="N83Hca_KGA1fbg6AVvMD-213" edge="1">
          <mxGeometry width="50" height="50" relative="1" as="geometry">
            <mxPoint x="1310" y="890" as="sourcePoint" />
            <mxPoint x="1360" y="840" as="targetPoint" />
          </mxGeometry>
        </mxCell>
        <mxCell id="b2kp6KdMQlq8Cz1gL0IX-73" value="1 : N" style="edgeLabel;html=1;align=center;verticalAlign=middle;resizable=0;points=[];" parent="b2kp6KdMQlq8Cz1gL0IX-65" vertex="1" connectable="0">
          <mxGeometry x="0.2167" y="-4" relative="1" as="geometry">
            <mxPoint as="offset" />
          </mxGeometry>
        </mxCell>
        <mxCell id="b2kp6KdMQlq8Cz1gL0IX-66" value="" style="endArrow=none;html=1;rounded=0;entryX=0.5;entryY=1;entryDx=0;entryDy=0;exitX=0.791;exitY=-0.01;exitDx=0;exitDy=0;exitPerimeter=0;" parent="WIyWlLk6GJQsqaUBKTNV-1" source="N83Hca_KGA1fbg6AVvMD-111" target="N83Hca_KGA1fbg6AVvMD-213" edge="1">
          <mxGeometry width="50" height="50" relative="1" as="geometry">
            <mxPoint x="1570" y="950" as="sourcePoint" />
            <mxPoint x="1620" y="900" as="targetPoint" />
            <Array as="points">
              <mxPoint x="1480" y="1040" />
              <mxPoint x="1560" y="1040" />
            </Array>
          </mxGeometry>
        </mxCell>
        <mxCell id="b2kp6KdMQlq8Cz1gL0IX-74" value="1 : N" style="edgeLabel;html=1;align=center;verticalAlign=middle;resizable=0;points=[];" parent="b2kp6KdMQlq8Cz1gL0IX-66" vertex="1" connectable="0">
          <mxGeometry x="0.6364" y="-2" relative="1" as="geometry">
            <mxPoint as="offset" />
          </mxGeometry>
        </mxCell>
        <mxCell id="b2kp6KdMQlq8Cz1gL0IX-67" value="" style="endArrow=none;html=1;rounded=0;entryX=0;entryY=0.5;entryDx=0;entryDy=0;exitX=1;exitY=0;exitDx=0;exitDy=0;" parent="WIyWlLk6GJQsqaUBKTNV-1" source="N83Hca_KGA1fbg6AVvMD-111" target="N83Hca_KGA1fbg6AVvMD-211" edge="1">
          <mxGeometry width="50" height="50" relative="1" as="geometry">
            <mxPoint x="1590" y="1010" as="sourcePoint" />
            <mxPoint x="1640" y="960" as="targetPoint" />
            <Array as="points">
              <mxPoint x="1600" y="1080" />
              <mxPoint x="1760" y="1080" />
              <mxPoint x="1760" y="920" />
            </Array>
          </mxGeometry>
        </mxCell>
        <mxCell id="b2kp6KdMQlq8Cz1gL0IX-72" value="N : 1" style="edgeLabel;html=1;align=center;verticalAlign=middle;resizable=0;points=[];" parent="b2kp6KdMQlq8Cz1gL0IX-67" vertex="1" connectable="0">
          <mxGeometry x="0.7161" y="2" relative="1" as="geometry">
            <mxPoint as="offset" />
          </mxGeometry>
        </mxCell>
        <mxCell id="b2kp6KdMQlq8Cz1gL0IX-68" value="" style="endArrow=none;html=1;rounded=0;entryX=0.5;entryY=1;entryDx=0;entryDy=0;exitX=0.5;exitY=0;exitDx=0;exitDy=0;" parent="WIyWlLk6GJQsqaUBKTNV-1" source="N83Hca_KGA1fbg6AVvMD-211" target="N83Hca_KGA1fbg6AVvMD-220" edge="1">
          <mxGeometry width="50" height="50" relative="1" as="geometry">
            <mxPoint x="1990" y="900" as="sourcePoint" />
            <mxPoint x="2040" y="850" as="targetPoint" />
          </mxGeometry>
        </mxCell>
        <mxCell id="b2kp6KdMQlq8Cz1gL0IX-71" value="1 : N" style="edgeLabel;html=1;align=center;verticalAlign=middle;resizable=0;points=[];" parent="b2kp6KdMQlq8Cz1gL0IX-68" vertex="1" connectable="0">
          <mxGeometry x="-0.2501" y="-3" relative="1" as="geometry">
            <mxPoint as="offset" />
          </mxGeometry>
        </mxCell>
        <mxCell id="b2kp6KdMQlq8Cz1gL0IX-69" value="" style="endArrow=none;html=1;rounded=0;entryX=0;entryY=0.5;entryDx=0;entryDy=0;exitX=1;exitY=0.5;exitDx=0;exitDy=0;" parent="WIyWlLk6GJQsqaUBKTNV-1" source="N83Hca_KGA1fbg6AVvMD-212" target="N83Hca_KGA1fbg6AVvMD-221" edge="1">
          <mxGeometry width="50" height="50" relative="1" as="geometry">
            <mxPoint x="1860" y="1240" as="sourcePoint" />
            <mxPoint x="1910" y="1190" as="targetPoint" />
          </mxGeometry>
        </mxCell>
        <mxCell id="b2kp6KdMQlq8Cz1gL0IX-78" value="N : 1" style="edgeLabel;html=1;align=center;verticalAlign=middle;resizable=0;points=[];" parent="b2kp6KdMQlq8Cz1gL0IX-69" vertex="1" connectable="0">
          <mxGeometry x="-0.0733" y="3" relative="1" as="geometry">
            <mxPoint as="offset" />
          </mxGeometry>
        </mxCell>
        <mxCell id="b2kp6KdMQlq8Cz1gL0IX-70" value="" style="endArrow=none;html=1;rounded=0;entryX=0;entryY=0.5;entryDx=0;entryDy=0;exitX=1;exitY=0.5;exitDx=0;exitDy=0;" parent="WIyWlLk6GJQsqaUBKTNV-1" source="N83Hca_KGA1fbg6AVvMD-111" target="N83Hca_KGA1fbg6AVvMD-212" edge="1">
          <mxGeometry width="50" height="50" relative="1" as="geometry">
            <mxPoint x="1560" y="1160" as="sourcePoint" />
            <mxPoint x="1610" y="1110" as="targetPoint" />
          </mxGeometry>
        </mxCell>
        <mxCell id="b2kp6KdMQlq8Cz1gL0IX-77" value="N : 1" style="edgeLabel;html=1;align=center;verticalAlign=middle;resizable=0;points=[];" parent="b2kp6KdMQlq8Cz1gL0IX-70" vertex="1" connectable="0">
          <mxGeometry x="0.3571" y="-3" relative="1" as="geometry">
            <mxPoint as="offset" />
          </mxGeometry>
        </mxCell>
        <mxCell id="b2kp6KdMQlq8Cz1gL0IX-79" value="" style="endArrow=none;html=1;rounded=0;entryX=0;entryY=0.5;entryDx=0;entryDy=0;exitX=0.5;exitY=0;exitDx=0;exitDy=0;" parent="WIyWlLk6GJQsqaUBKTNV-1" source="N83Hca_KGA1fbg6AVvMD-252" target="N83Hca_KGA1fbg6AVvMD-262" edge="1">
          <mxGeometry width="50" height="50" relative="1" as="geometry">
            <mxPoint x="940" y="1340" as="sourcePoint" />
            <mxPoint x="990" y="1290" as="targetPoint" />
            <Array as="points">
              <mxPoint x="1010" y="1350" />
            </Array>
          </mxGeometry>
        </mxCell>
        <mxCell id="b2kp6KdMQlq8Cz1gL0IX-82" value="N : 1" style="edgeLabel;html=1;align=center;verticalAlign=middle;resizable=0;points=[];" parent="b2kp6KdMQlq8Cz1gL0IX-79" vertex="1" connectable="0">
          <mxGeometry x="0.5248" y="-1" relative="1" as="geometry">
            <mxPoint as="offset" />
          </mxGeometry>
        </mxCell>
        <mxCell id="b2kp6KdMQlq8Cz1gL0IX-80" value="" style="endArrow=none;html=1;rounded=0;entryX=0.25;entryY=1;entryDx=0;entryDy=0;exitX=1;exitY=0.5;exitDx=0;exitDy=0;" parent="WIyWlLk6GJQsqaUBKTNV-1" source="N83Hca_KGA1fbg6AVvMD-262" target="N83Hca_KGA1fbg6AVvMD-111" edge="1">
          <mxGeometry width="50" height="50" relative="1" as="geometry">
            <mxPoint x="1340" y="1400" as="sourcePoint" />
            <mxPoint x="1390" y="1350" as="targetPoint" />
            <Array as="points">
              <mxPoint x="1410" y="1350" />
            </Array>
          </mxGeometry>
        </mxCell>
        <mxCell id="b2kp6KdMQlq8Cz1gL0IX-81" value="N : 1" style="edgeLabel;html=1;align=center;verticalAlign=middle;resizable=0;points=[];" parent="b2kp6KdMQlq8Cz1gL0IX-80" vertex="1" connectable="0">
          <mxGeometry x="-0.5028" y="2" relative="1" as="geometry">
            <mxPoint as="offset" />
          </mxGeometry>
        </mxCell>
        <mxCell id="b2kp6KdMQlq8Cz1gL0IX-83" value="" style="endArrow=none;html=1;rounded=0;exitX=1;exitY=0.5;exitDx=0;exitDy=0;entryX=0;entryY=0.5;entryDx=0;entryDy=0;" parent="WIyWlLk6GJQsqaUBKTNV-1" source="N83Hca_KGA1fbg6AVvMD-108" target="N83Hca_KGA1fbg6AVvMD-111" edge="1">
          <mxGeometry width="50" height="50" relative="1" as="geometry">
            <mxPoint x="1150" y="1170" as="sourcePoint" />
            <mxPoint x="1200" y="1120" as="targetPoint" />
          </mxGeometry>
        </mxCell>
        <mxCell id="b2kp6KdMQlq8Cz1gL0IX-85" value="N : 1" style="edgeLabel;html=1;align=center;verticalAlign=middle;resizable=0;points=[];" parent="b2kp6KdMQlq8Cz1gL0IX-83" vertex="1" connectable="0">
          <mxGeometry x="-0.1405" y="2" relative="1" as="geometry">
            <mxPoint as="offset" />
          </mxGeometry>
        </mxCell>
        <mxCell id="b2kp6KdMQlq8Cz1gL0IX-84" value="" style="endArrow=none;html=1;rounded=0;entryX=0.5;entryY=1;entryDx=0;entryDy=0;" parent="WIyWlLk6GJQsqaUBKTNV-1" target="N83Hca_KGA1fbg6AVvMD-91" edge="1">
          <mxGeometry width="50" height="50" relative="1" as="geometry">
            <mxPoint x="910" y="1120" as="sourcePoint" />
            <mxPoint x="950" y="1100" as="targetPoint" />
          </mxGeometry>
        </mxCell>
        <mxCell id="b2kp6KdMQlq8Cz1gL0IX-86" value="1 : N" style="edgeLabel;html=1;align=center;verticalAlign=middle;resizable=0;points=[];" parent="b2kp6KdMQlq8Cz1gL0IX-84" vertex="1" connectable="0">
          <mxGeometry x="0.0086" y="-1" relative="1" as="geometry">
            <mxPoint as="offset" />
          </mxGeometry>
        </mxCell>
      </root>
    </mxGraphModel>
  </diagram>
</mxfile>
